<svg xmlns="http://www.w3.org/2000/svg" xmlns:xlink="http://www.w3.org/1999/xlink" width="600" height="400" viewBox="0 0 2400 1600">
<defs>
  <clipPath id="clip360">
    <rect x="0" y="0" width="2400" height="1600"></rect>
  </clipPath>
</defs>
<path clip-path="url(#clip360)" d="
M0 1600 L2400 1600 L2400 0 L0 0  Z
  " fill="#ffffff" fill-rule="evenodd" fill-opacity="1"></path>
<defs>
  <clipPath id="clip361">
    <rect x="480" y="0" width="1681" height="1600"></rect>
  </clipPath>
</defs>
<path clip-path="url(#clip360)" d="
M249.542 1423.18 L2352.76 1423.18 L2352.76 123.472 L249.542 123.472  Z
  " fill="#ffffff" fill-rule="evenodd" fill-opacity="1"></path>
<defs>
  <clipPath id="clip362">
    <rect x="249" y="123" width="2104" height="1301"></rect>
  </clipPath>
</defs>
<polyline clip-path="url(#clip362)" style="stroke:#000000; stroke-linecap:butt; stroke-linejoin:round; stroke-width:2; stroke-opacity:0.1; fill:none" points="
  288.82,1423.18 288.82,123.472 
  "></polyline>
<polyline clip-path="url(#clip362)" style="stroke:#000000; stroke-linecap:butt; stroke-linejoin:round; stroke-width:2; stroke-opacity:0.1; fill:none" points="
  794.985,1423.18 794.985,123.472 
  "></polyline>
<polyline clip-path="url(#clip362)" style="stroke:#000000; stroke-linecap:butt; stroke-linejoin:round; stroke-width:2; stroke-opacity:0.1; fill:none" points="
  1301.15,1423.18 1301.15,123.472 
  "></polyline>
<polyline clip-path="url(#clip362)" style="stroke:#000000; stroke-linecap:butt; stroke-linejoin:round; stroke-width:2; stroke-opacity:0.1; fill:none" points="
  1807.31,1423.18 1807.31,123.472 
  "></polyline>
<polyline clip-path="url(#clip362)" style="stroke:#000000; stroke-linecap:butt; stroke-linejoin:round; stroke-width:2; stroke-opacity:0.1; fill:none" points="
  2313.48,1423.18 2313.48,123.472 
  "></polyline>
<polyline clip-path="url(#clip360)" style="stroke:#000000; stroke-linecap:butt; stroke-linejoin:round; stroke-width:4; stroke-opacity:1; fill:none" points="
  249.542,1423.18 2352.76,1423.18 
  "></polyline>
<polyline clip-path="url(#clip360)" style="stroke:#000000; stroke-linecap:butt; stroke-linejoin:round; stroke-width:4; stroke-opacity:1; fill:none" points="
  288.82,1423.18 288.82,1404.28 
  "></polyline>
<polyline clip-path="url(#clip360)" style="stroke:#000000; stroke-linecap:butt; stroke-linejoin:round; stroke-width:4; stroke-opacity:1; fill:none" points="
  794.985,1423.18 794.985,1404.28 
  "></polyline>
<polyline clip-path="url(#clip360)" style="stroke:#000000; stroke-linecap:butt; stroke-linejoin:round; stroke-width:4; stroke-opacity:1; fill:none" points="
  1301.15,1423.18 1301.15,1404.28 
  "></polyline>
<polyline clip-path="url(#clip360)" style="stroke:#000000; stroke-linecap:butt; stroke-linejoin:round; stroke-width:4; stroke-opacity:1; fill:none" points="
  1807.31,1423.18 1807.31,1404.28 
  "></polyline>
<polyline clip-path="url(#clip360)" style="stroke:#000000; stroke-linecap:butt; stroke-linejoin:round; stroke-width:4; stroke-opacity:1; fill:none" points="
  2313.48,1423.18 2313.48,1404.28 
  "></polyline>
<path clip-path="url(#clip360)" d="M251.124 1454.1 Q247.513 1454.1 245.684 1457.66 Q243.878 1461.2 243.878 1468.33 Q243.878 1475.44 245.684 1479.01 Q247.513 1482.55 251.124 1482.55 Q254.758 1482.55 256.564 1479.01 Q258.392 1475.44 258.392 1468.33 Q258.392 1461.2 256.564 1457.66 Q254.758 1454.1 251.124 1454.1 M251.124 1450.39 Q256.934 1450.39 259.99 1455 Q263.068 1459.58 263.068 1468.33 Q263.068 1477.06 259.99 1481.67 Q256.934 1486.25 251.124 1486.25 Q245.314 1486.25 242.235 1481.67 Q239.179 1477.06 239.179 1468.33 Q239.179 1459.58 242.235 1455 Q245.314 1450.39 251.124 1450.39 Z" fill="#000000" fill-rule="evenodd" fill-opacity="1"></path><path clip-path="url(#clip360)" d="M271.286 1479.7 L276.17 1479.7 L276.17 1485.58 L271.286 1485.58 L271.286 1479.7 Z" fill="#000000" fill-rule="evenodd" fill-opacity="1"></path><path clip-path="url(#clip360)" d="M296.355 1454.1 Q292.744 1454.1 290.915 1457.66 Q289.11 1461.2 289.11 1468.33 Q289.11 1475.44 290.915 1479.01 Q292.744 1482.55 296.355 1482.55 Q299.989 1482.55 301.795 1479.01 Q303.624 1475.44 303.624 1468.33 Q303.624 1461.2 301.795 1457.66 Q299.989 1454.1 296.355 1454.1 M296.355 1450.39 Q302.165 1450.39 305.221 1455 Q308.299 1459.58 308.299 1468.33 Q308.299 1477.06 305.221 1481.67 Q302.165 1486.25 296.355 1486.25 Q290.545 1486.25 287.466 1481.67 Q284.411 1477.06 284.411 1468.33 Q284.411 1459.58 287.466 1455 Q290.545 1450.39 296.355 1450.39 Z" fill="#000000" fill-rule="evenodd" fill-opacity="1"></path><path clip-path="url(#clip360)" d="M326.517 1454.1 Q322.906 1454.1 321.077 1457.66 Q319.272 1461.2 319.272 1468.33 Q319.272 1475.44 321.077 1479.01 Q322.906 1482.55 326.517 1482.55 Q330.151 1482.55 331.957 1479.01 Q333.785 1475.44 333.785 1468.33 Q333.785 1461.2 331.957 1457.66 Q330.151 1454.1 326.517 1454.1 M326.517 1450.39 Q332.327 1450.39 335.383 1455 Q338.461 1459.58 338.461 1468.33 Q338.461 1477.06 335.383 1481.67 Q332.327 1486.25 326.517 1486.25 Q320.707 1486.25 317.628 1481.67 Q314.573 1477.06 314.573 1468.33 Q314.573 1459.58 317.628 1455 Q320.707 1450.39 326.517 1450.39 Z" fill="#000000" fill-rule="evenodd" fill-opacity="1"></path><path clip-path="url(#clip360)" d="M757.786 1454.1 Q754.175 1454.1 752.346 1457.66 Q750.54 1461.2 750.54 1468.33 Q750.54 1475.44 752.346 1479.01 Q754.175 1482.55 757.786 1482.55 Q761.42 1482.55 763.226 1479.01 Q765.054 1475.44 765.054 1468.33 Q765.054 1461.2 763.226 1457.66 Q761.42 1454.1 757.786 1454.1 M757.786 1450.39 Q763.596 1450.39 766.651 1455 Q769.73 1459.58 769.73 1468.33 Q769.73 1477.06 766.651 1481.67 Q763.596 1486.25 757.786 1486.25 Q751.976 1486.25 748.897 1481.67 Q745.841 1477.06 745.841 1468.33 Q745.841 1459.58 748.897 1455 Q751.976 1450.39 757.786 1450.39 Z" fill="#000000" fill-rule="evenodd" fill-opacity="1"></path><path clip-path="url(#clip360)" d="M777.948 1479.7 L782.832 1479.7 L782.832 1485.58 L777.948 1485.58 L777.948 1479.7 Z" fill="#000000" fill-rule="evenodd" fill-opacity="1"></path><path clip-path="url(#clip360)" d="M797.045 1481.64 L813.364 1481.64 L813.364 1485.58 L791.42 1485.58 L791.42 1481.64 Q794.082 1478.89 798.665 1474.26 Q803.272 1469.61 804.452 1468.27 Q806.698 1465.74 807.577 1464.01 Q808.48 1462.25 808.48 1460.56 Q808.48 1457.8 806.536 1456.07 Q804.614 1454.33 801.512 1454.33 Q799.313 1454.33 796.86 1455.09 Q794.429 1455.86 791.651 1457.41 L791.651 1452.69 Q794.475 1451.55 796.929 1450.97 Q799.383 1450.39 801.42 1450.39 Q806.79 1450.39 809.985 1453.08 Q813.179 1455.77 813.179 1460.26 Q813.179 1462.39 812.369 1464.31 Q811.582 1466.2 809.475 1468.8 Q808.897 1469.47 805.795 1472.69 Q802.693 1475.88 797.045 1481.64 Z" fill="#000000" fill-rule="evenodd" fill-opacity="1"></path><path clip-path="url(#clip360)" d="M823.225 1451.02 L841.582 1451.02 L841.582 1454.96 L827.508 1454.96 L827.508 1463.43 Q828.526 1463.08 829.545 1462.92 Q830.563 1462.73 831.582 1462.73 Q837.369 1462.73 840.748 1465.9 Q844.128 1469.08 844.128 1474.49 Q844.128 1480.07 840.656 1483.17 Q837.184 1486.25 830.864 1486.25 Q828.688 1486.25 826.42 1485.88 Q824.174 1485.51 821.767 1484.77 L821.767 1480.07 Q823.85 1481.2 826.072 1481.76 Q828.295 1482.32 830.772 1482.32 Q834.776 1482.32 837.114 1480.21 Q839.452 1478.1 839.452 1474.49 Q839.452 1470.88 837.114 1468.77 Q834.776 1466.67 830.772 1466.67 Q828.897 1466.67 827.022 1467.08 Q825.17 1467.5 823.225 1468.38 L823.225 1451.02 Z" fill="#000000" fill-rule="evenodd" fill-opacity="1"></path><path clip-path="url(#clip360)" d="M1263.45 1454.1 Q1259.84 1454.1 1258.01 1457.66 Q1256.21 1461.2 1256.21 1468.33 Q1256.21 1475.44 1258.01 1479.01 Q1259.84 1482.55 1263.45 1482.55 Q1267.09 1482.55 1268.89 1479.01 Q1270.72 1475.44 1270.72 1468.33 Q1270.72 1461.2 1268.89 1457.66 Q1267.09 1454.1 1263.45 1454.1 M1263.45 1450.39 Q1269.26 1450.39 1272.32 1455 Q1275.4 1459.58 1275.4 1468.33 Q1275.4 1477.06 1272.32 1481.67 Q1269.26 1486.25 1263.45 1486.25 Q1257.64 1486.25 1254.56 1481.67 Q1251.51 1477.06 1251.51 1468.33 Q1251.51 1459.58 1254.56 1455 Q1257.64 1450.39 1263.45 1450.39 Z" fill="#000000" fill-rule="evenodd" fill-opacity="1"></path><path clip-path="url(#clip360)" d="M1283.61 1479.7 L1288.5 1479.7 L1288.5 1485.58 L1283.61 1485.58 L1283.61 1479.7 Z" fill="#000000" fill-rule="evenodd" fill-opacity="1"></path><path clip-path="url(#clip360)" d="M1298.73 1451.02 L1317.09 1451.02 L1317.09 1454.96 L1303.01 1454.96 L1303.01 1463.43 Q1304.03 1463.08 1305.05 1462.92 Q1306.07 1462.73 1307.09 1462.73 Q1312.87 1462.73 1316.25 1465.9 Q1319.63 1469.08 1319.63 1474.49 Q1319.63 1480.07 1316.16 1483.17 Q1312.69 1486.25 1306.37 1486.25 Q1304.19 1486.25 1301.92 1485.88 Q1299.68 1485.51 1297.27 1484.77 L1297.27 1480.07 Q1299.35 1481.2 1301.58 1481.76 Q1303.8 1482.32 1306.28 1482.32 Q1310.28 1482.32 1312.62 1480.21 Q1314.96 1478.1 1314.96 1474.49 Q1314.96 1470.88 1312.62 1468.77 Q1310.28 1466.67 1306.28 1466.67 Q1304.4 1466.67 1302.53 1467.08 Q1300.67 1467.5 1298.73 1468.38 L1298.73 1451.02 Z" fill="#000000" fill-rule="evenodd" fill-opacity="1"></path><path clip-path="url(#clip360)" d="M1338.85 1454.1 Q1335.23 1454.1 1333.41 1457.66 Q1331.6 1461.2 1331.6 1468.33 Q1331.6 1475.44 1333.41 1479.01 Q1335.23 1482.55 1338.85 1482.55 Q1342.48 1482.55 1344.29 1479.01 Q1346.11 1475.44 1346.11 1468.33 Q1346.11 1461.2 1344.29 1457.66 Q1342.48 1454.1 1338.85 1454.1 M1338.85 1450.39 Q1344.66 1450.39 1347.71 1455 Q1350.79 1459.58 1350.79 1468.33 Q1350.79 1477.06 1347.71 1481.67 Q1344.66 1486.25 1338.85 1486.25 Q1333.04 1486.25 1329.96 1481.67 Q1326.9 1477.06 1326.9 1468.33 Q1326.9 1459.58 1329.96 1455 Q1333.04 1450.39 1338.85 1450.39 Z" fill="#000000" fill-rule="evenodd" fill-opacity="1"></path><path clip-path="url(#clip360)" d="M1770.11 1454.1 Q1766.5 1454.1 1764.67 1457.66 Q1762.87 1461.2 1762.87 1468.33 Q1762.87 1475.44 1764.67 1479.01 Q1766.5 1482.55 1770.11 1482.55 Q1773.75 1482.55 1775.55 1479.01 Q1777.38 1475.44 1777.38 1468.33 Q1777.38 1461.2 1775.55 1457.66 Q1773.75 1454.1 1770.11 1454.1 M1770.11 1450.39 Q1775.92 1450.39 1778.98 1455 Q1782.06 1459.58 1782.06 1468.33 Q1782.06 1477.06 1778.98 1481.67 Q1775.92 1486.25 1770.11 1486.25 Q1764.3 1486.25 1761.23 1481.67 Q1758.17 1477.06 1758.17 1468.33 Q1758.17 1459.58 1761.23 1455 Q1764.3 1450.39 1770.11 1450.39 Z" fill="#000000" fill-rule="evenodd" fill-opacity="1"></path><path clip-path="url(#clip360)" d="M1790.28 1479.7 L1795.16 1479.7 L1795.16 1485.58 L1790.28 1485.58 L1790.28 1479.7 Z" fill="#000000" fill-rule="evenodd" fill-opacity="1"></path><path clip-path="url(#clip360)" d="M1804.17 1451.02 L1826.39 1451.02 L1826.39 1453.01 L1813.84 1485.58 L1808.96 1485.58 L1820.76 1454.96 L1804.17 1454.96 L1804.17 1451.02 Z" fill="#000000" fill-rule="evenodd" fill-opacity="1"></path><path clip-path="url(#clip360)" d="M1835.55 1451.02 L1853.91 1451.02 L1853.91 1454.96 L1839.84 1454.96 L1839.84 1463.43 Q1840.85 1463.08 1841.87 1462.92 Q1842.89 1462.73 1843.91 1462.73 Q1849.7 1462.73 1853.08 1465.9 Q1856.46 1469.08 1856.46 1474.49 Q1856.46 1480.07 1852.98 1483.17 Q1849.51 1486.25 1843.19 1486.25 Q1841.02 1486.25 1838.75 1485.88 Q1836.5 1485.51 1834.1 1484.77 L1834.1 1480.07 Q1836.18 1481.2 1838.4 1481.76 Q1840.62 1482.32 1843.1 1482.32 Q1847.1 1482.32 1849.44 1480.21 Q1851.78 1478.1 1851.78 1474.49 Q1851.78 1470.88 1849.44 1468.77 Q1847.1 1466.67 1843.1 1466.67 Q1841.23 1466.67 1839.35 1467.08 Q1837.5 1467.5 1835.55 1468.38 L1835.55 1451.02 Z" fill="#000000" fill-rule="evenodd" fill-opacity="1"></path><path clip-path="url(#clip360)" d="M2265.55 1481.64 L2273.19 1481.64 L2273.19 1455.28 L2264.88 1456.95 L2264.88 1452.69 L2273.14 1451.02 L2277.82 1451.02 L2277.82 1481.64 L2285.46 1481.64 L2285.46 1485.58 L2265.55 1485.58 L2265.55 1481.64 Z" fill="#000000" fill-rule="evenodd" fill-opacity="1"></path><path clip-path="url(#clip360)" d="M2294.9 1479.7 L2299.79 1479.7 L2299.79 1485.58 L2294.9 1485.58 L2294.9 1479.7 Z" fill="#000000" fill-rule="evenodd" fill-opacity="1"></path><path clip-path="url(#clip360)" d="M2319.97 1454.1 Q2316.36 1454.1 2314.53 1457.66 Q2312.73 1461.2 2312.73 1468.33 Q2312.73 1475.44 2314.53 1479.01 Q2316.36 1482.55 2319.97 1482.55 Q2323.6 1482.55 2325.41 1479.01 Q2327.24 1475.44 2327.24 1468.33 Q2327.24 1461.2 2325.41 1457.66 Q2323.6 1454.1 2319.97 1454.1 M2319.97 1450.39 Q2325.78 1450.39 2328.84 1455 Q2331.91 1459.58 2331.91 1468.33 Q2331.91 1477.06 2328.84 1481.67 Q2325.78 1486.25 2319.97 1486.25 Q2314.16 1486.25 2311.08 1481.67 Q2308.03 1477.06 2308.03 1468.33 Q2308.03 1459.58 2311.08 1455 Q2314.16 1450.39 2319.97 1450.39 Z" fill="#000000" fill-rule="evenodd" fill-opacity="1"></path><path clip-path="url(#clip360)" d="M2350.13 1454.1 Q2346.52 1454.1 2344.69 1457.66 Q2342.89 1461.2 2342.89 1468.33 Q2342.89 1475.44 2344.69 1479.01 Q2346.52 1482.55 2350.13 1482.55 Q2353.77 1482.55 2355.57 1479.01 Q2357.4 1475.44 2357.4 1468.33 Q2357.4 1461.2 2355.57 1457.66 Q2353.77 1454.1 2350.13 1454.1 M2350.13 1450.39 Q2355.94 1450.39 2359 1455 Q2362.08 1459.58 2362.08 1468.33 Q2362.08 1477.06 2359 1481.67 Q2355.94 1486.25 2350.13 1486.25 Q2344.32 1486.25 2341.24 1481.67 Q2338.19 1477.06 2338.19 1468.33 Q2338.19 1459.58 2341.24 1455 Q2344.32 1450.39 2350.13 1450.39 Z" fill="#000000" fill-rule="evenodd" fill-opacity="1"></path><path clip-path="url(#clip360)" d="M1109.59 1525.81 L1109.59 1543.66 L1117.67 1543.66 Q1122.16 1543.66 1124.61 1541.34 Q1127.06 1539.02 1127.06 1534.72 Q1127.06 1530.45 1124.61 1528.13 Q1122.16 1525.81 1117.67 1525.81 L1109.59 1525.81 M1103.16 1520.52 L1117.67 1520.52 Q1125.66 1520.52 1129.74 1524.15 Q1133.84 1527.75 1133.84 1534.72 Q1133.84 1541.75 1129.74 1545.35 Q1125.66 1548.95 1117.67 1548.95 L1109.59 1548.95 L1109.59 1568.04 L1103.16 1568.04 L1103.16 1520.52 Z" fill="#000000" fill-rule="evenodd" fill-opacity="1"></path><path clip-path="url(#clip360)" d="M1161.72 1537.87 Q1160.74 1537.3 1159.56 1537.04 Q1158.41 1536.76 1157.01 1536.76 Q1152.05 1536.76 1149.37 1540 Q1146.73 1543.22 1146.73 1549.27 L1146.73 1568.04 L1140.84 1568.04 L1140.84 1532.4 L1146.73 1532.4 L1146.73 1537.93 Q1148.58 1534.69 1151.54 1533.13 Q1154.5 1531.54 1158.73 1531.54 Q1159.34 1531.54 1160.07 1531.63 Q1160.8 1531.7 1161.69 1531.85 L1161.72 1537.87 Z" fill="#000000" fill-rule="evenodd" fill-opacity="1"></path><path clip-path="url(#clip360)" d="M1180.25 1536.5 Q1175.54 1536.5 1172.8 1540.19 Q1170.06 1543.85 1170.06 1550.25 Q1170.06 1556.65 1172.77 1560.34 Q1175.51 1564 1180.25 1564 Q1184.93 1564 1187.66 1560.31 Q1190.4 1556.62 1190.4 1550.25 Q1190.4 1543.92 1187.66 1540.23 Q1184.93 1536.5 1180.25 1536.5 M1180.25 1531.54 Q1187.89 1531.54 1192.25 1536.5 Q1196.61 1541.47 1196.61 1550.25 Q1196.61 1559 1192.25 1564 Q1187.89 1568.97 1180.25 1568.97 Q1172.58 1568.97 1168.22 1564 Q1163.89 1559 1163.89 1550.25 Q1163.89 1541.47 1168.22 1536.5 Q1172.58 1531.54 1180.25 1531.54 Z" fill="#000000" fill-rule="evenodd" fill-opacity="1"></path><path clip-path="url(#clip360)" d="M1231.91 1550.25 Q1231.91 1543.79 1229.23 1540.13 Q1226.59 1536.44 1221.94 1536.44 Q1217.3 1536.44 1214.62 1540.13 Q1211.98 1543.79 1211.98 1550.25 Q1211.98 1556.71 1214.62 1560.4 Q1217.3 1564.07 1221.94 1564.07 Q1226.59 1564.07 1229.23 1560.4 Q1231.91 1556.71 1231.91 1550.25 M1211.98 1537.81 Q1213.83 1534.62 1216.63 1533.1 Q1219.46 1531.54 1223.38 1531.54 Q1229.87 1531.54 1233.91 1536.69 Q1237.99 1541.85 1237.99 1550.25 Q1237.99 1558.65 1233.91 1563.81 Q1229.87 1568.97 1223.38 1568.97 Q1219.46 1568.97 1216.63 1567.44 Q1213.83 1565.88 1211.98 1562.7 L1211.98 1568.04 L1206.09 1568.04 L1206.09 1518.52 L1211.98 1518.52 L1211.98 1537.81 Z" fill="#000000" fill-rule="evenodd" fill-opacity="1"></path><path clip-path="url(#clip360)" d="M1263.89 1550.12 Q1256.8 1550.12 1254.06 1551.75 Q1251.32 1553.37 1251.32 1557.29 Q1251.32 1560.4 1253.36 1562.25 Q1255.43 1564.07 1258.96 1564.07 Q1263.83 1564.07 1266.76 1560.63 Q1269.72 1557.16 1269.72 1551.43 L1269.72 1550.12 L1263.89 1550.12 M1275.57 1547.71 L1275.57 1568.04 L1269.72 1568.04 L1269.72 1562.63 Q1267.71 1565.88 1264.72 1567.44 Q1261.73 1568.97 1257.4 1568.97 Q1251.93 1568.97 1248.68 1565.91 Q1245.46 1562.82 1245.46 1557.67 Q1245.46 1551.65 1249.48 1548.6 Q1253.52 1545.54 1261.51 1545.54 L1269.72 1545.54 L1269.72 1544.97 Q1269.72 1540.93 1267.04 1538.73 Q1264.4 1536.5 1259.6 1536.5 Q1256.54 1536.5 1253.64 1537.23 Q1250.75 1537.97 1248.07 1539.43 L1248.07 1534.02 Q1251.29 1532.78 1254.31 1532.17 Q1257.34 1531.54 1260.2 1531.54 Q1267.94 1531.54 1271.76 1535.55 Q1275.57 1539.56 1275.57 1547.71 Z" fill="#000000" fill-rule="evenodd" fill-opacity="1"></path><path clip-path="url(#clip360)" d="M1313.23 1550.25 Q1313.23 1543.79 1310.55 1540.13 Q1307.91 1536.44 1303.27 1536.44 Q1298.62 1536.44 1295.95 1540.13 Q1293.3 1543.79 1293.3 1550.25 Q1293.3 1556.71 1295.95 1560.4 Q1298.62 1564.07 1303.27 1564.07 Q1307.91 1564.07 1310.55 1560.4 Q1313.23 1556.71 1313.23 1550.25 M1293.3 1537.81 Q1295.15 1534.62 1297.95 1533.1 Q1300.78 1531.54 1304.7 1531.54 Q1311.19 1531.54 1315.23 1536.69 Q1319.31 1541.85 1319.31 1550.25 Q1319.31 1558.65 1315.23 1563.81 Q1311.19 1568.97 1304.7 1568.97 Q1300.78 1568.97 1297.95 1567.44 Q1295.15 1565.88 1293.3 1562.7 L1293.3 1568.04 L1287.41 1568.04 L1287.41 1518.52 L1293.3 1518.52 L1293.3 1537.81 Z" fill="#000000" fill-rule="evenodd" fill-opacity="1"></path><path clip-path="url(#clip360)" d="M1329.01 1532.4 L1334.87 1532.4 L1334.87 1568.04 L1329.01 1568.04 L1329.01 1532.4 M1329.01 1518.52 L1334.87 1518.52 L1334.87 1525.93 L1329.01 1525.93 L1329.01 1518.52 Z" fill="#000000" fill-rule="evenodd" fill-opacity="1"></path><path clip-path="url(#clip360)" d="M1347.13 1518.52 L1352.98 1518.52 L1352.98 1568.04 L1347.13 1568.04 L1347.13 1518.52 Z" fill="#000000" fill-rule="evenodd" fill-opacity="1"></path><path clip-path="url(#clip360)" d="M1365.24 1532.4 L1371.09 1532.4 L1371.09 1568.04 L1365.24 1568.04 L1365.24 1532.4 M1365.24 1518.52 L1371.09 1518.52 L1371.09 1525.93 L1365.24 1525.93 L1365.24 1518.52 Z" fill="#000000" fill-rule="evenodd" fill-opacity="1"></path><path clip-path="url(#clip360)" d="M1389.14 1522.27 L1389.14 1532.4 L1401.2 1532.4 L1401.2 1536.95 L1389.14 1536.95 L1389.14 1556.3 Q1389.14 1560.66 1390.32 1561.9 Q1391.53 1563.14 1395.19 1563.14 L1401.2 1563.14 L1401.2 1568.04 L1395.19 1568.04 Q1388.41 1568.04 1385.83 1565.53 Q1383.25 1562.98 1383.25 1556.3 L1383.25 1536.95 L1378.95 1536.95 L1378.95 1532.4 L1383.25 1532.4 L1383.25 1522.27 L1389.14 1522.27 Z" fill="#000000" fill-rule="evenodd" fill-opacity="1"></path><path clip-path="url(#clip360)" d="M1423.74 1571.35 Q1421.25 1577.72 1418.9 1579.66 Q1416.54 1581.6 1412.6 1581.6 L1407.92 1581.6 L1407.92 1576.7 L1411.36 1576.7 Q1413.77 1576.7 1415.11 1575.56 Q1416.45 1574.41 1418.07 1570.14 L1419.12 1567.47 L1404.7 1532.4 L1410.91 1532.4 L1422.05 1560.28 L1433.19 1532.4 L1439.4 1532.4 L1423.74 1571.35 Z" fill="#000000" fill-rule="evenodd" fill-opacity="1"></path><path clip-path="url(#clip360)" d="M1474.89 1525.81 L1474.89 1543.66 L1482.97 1543.66 Q1487.46 1543.66 1489.91 1541.34 Q1492.36 1539.02 1492.36 1534.72 Q1492.36 1530.45 1489.91 1528.13 Q1487.46 1525.81 1482.97 1525.81 L1474.89 1525.81 M1468.46 1520.52 L1482.97 1520.52 Q1490.96 1520.52 1495.03 1524.15 Q1499.14 1527.75 1499.14 1534.72 Q1499.14 1541.75 1495.03 1545.35 Q1490.96 1548.95 1482.97 1548.95 L1474.89 1548.95 L1474.89 1568.04 L1468.46 1568.04 L1468.46 1520.52 Z" fill="#000000" fill-rule="evenodd" fill-opacity="1"></path><polyline clip-path="url(#clip362)" style="stroke:#000000; stroke-linecap:butt; stroke-linejoin:round; stroke-width:2; stroke-opacity:0.1; fill:none" points="
  249.542,1386.4 2352.76,1386.4 
  "></polyline>
<polyline clip-path="url(#clip362)" style="stroke:#000000; stroke-linecap:butt; stroke-linejoin:round; stroke-width:2; stroke-opacity:0.1; fill:none" points="
  249.542,1076.81 2352.76,1076.81 
  "></polyline>
<polyline clip-path="url(#clip362)" style="stroke:#000000; stroke-linecap:butt; stroke-linejoin:round; stroke-width:2; stroke-opacity:0.1; fill:none" points="
  249.542,767.22 2352.76,767.22 
  "></polyline>
<polyline clip-path="url(#clip362)" style="stroke:#000000; stroke-linecap:butt; stroke-linejoin:round; stroke-width:2; stroke-opacity:0.1; fill:none" points="
  249.542,457.631 2352.76,457.631 
  "></polyline>
<polyline clip-path="url(#clip362)" style="stroke:#000000; stroke-linecap:butt; stroke-linejoin:round; stroke-width:2; stroke-opacity:0.1; fill:none" points="
  249.542,148.041 2352.76,148.041 
  "></polyline>
<polyline clip-path="url(#clip360)" style="stroke:#000000; stroke-linecap:butt; stroke-linejoin:round; stroke-width:4; stroke-opacity:1; fill:none" points="
  249.542,1423.18 249.542,123.472 
  "></polyline>
<polyline clip-path="url(#clip360)" style="stroke:#000000; stroke-linecap:butt; stroke-linejoin:round; stroke-width:4; stroke-opacity:1; fill:none" points="
  249.542,1386.4 268.44,1386.4 
  "></polyline>
<polyline clip-path="url(#clip360)" style="stroke:#000000; stroke-linecap:butt; stroke-linejoin:round; stroke-width:4; stroke-opacity:1; fill:none" points="
  249.542,1076.81 268.44,1076.81 
  "></polyline>
<polyline clip-path="url(#clip360)" style="stroke:#000000; stroke-linecap:butt; stroke-linejoin:round; stroke-width:4; stroke-opacity:1; fill:none" points="
  249.542,767.22 268.44,767.22 
  "></polyline>
<polyline clip-path="url(#clip360)" style="stroke:#000000; stroke-linecap:butt; stroke-linejoin:round; stroke-width:4; stroke-opacity:1; fill:none" points="
  249.542,457.631 268.44,457.631 
  "></polyline>
<polyline clip-path="url(#clip360)" style="stroke:#000000; stroke-linecap:butt; stroke-linejoin:round; stroke-width:4; stroke-opacity:1; fill:none" points="
  249.542,148.041 268.44,148.041 
  "></polyline>
<path clip-path="url(#clip360)" d="M126.205 1372.2 Q122.593 1372.2 120.765 1375.76 Q118.959 1379.3 118.959 1386.43 Q118.959 1393.54 120.765 1397.11 Q122.593 1400.65 126.205 1400.65 Q129.839 1400.65 131.644 1397.11 Q133.473 1393.54 133.473 1386.43 Q133.473 1379.3 131.644 1375.76 Q129.839 1372.2 126.205 1372.2 M126.205 1368.49 Q132.015 1368.49 135.07 1373.1 Q138.149 1377.68 138.149 1386.43 Q138.149 1395.16 135.07 1399.77 Q132.015 1404.35 126.205 1404.35 Q120.394 1404.35 117.316 1399.77 Q114.26 1395.16 114.26 1386.43 Q114.26 1377.68 117.316 1373.1 Q120.394 1368.49 126.205 1368.49 Z" fill="#000000" fill-rule="evenodd" fill-opacity="1"></path><path clip-path="url(#clip360)" d="M146.366 1397.8 L151.251 1397.8 L151.251 1403.68 L146.366 1403.68 L146.366 1397.8 Z" fill="#000000" fill-rule="evenodd" fill-opacity="1"></path><path clip-path="url(#clip360)" d="M171.436 1372.2 Q167.825 1372.2 165.996 1375.76 Q164.19 1379.3 164.19 1386.43 Q164.19 1393.54 165.996 1397.11 Q167.825 1400.65 171.436 1400.65 Q175.07 1400.65 176.876 1397.11 Q178.704 1393.54 178.704 1386.43 Q178.704 1379.3 176.876 1375.76 Q175.07 1372.2 171.436 1372.2 M171.436 1368.49 Q177.246 1368.49 180.301 1373.1 Q183.38 1377.68 183.38 1386.43 Q183.38 1395.16 180.301 1399.77 Q177.246 1404.35 171.436 1404.35 Q165.626 1404.35 162.547 1399.77 Q159.491 1395.16 159.491 1386.43 Q159.491 1377.68 162.547 1373.1 Q165.626 1368.49 171.436 1368.49 Z" fill="#000000" fill-rule="evenodd" fill-opacity="1"></path><path clip-path="url(#clip360)" d="M201.598 1372.2 Q197.987 1372.2 196.158 1375.76 Q194.352 1379.3 194.352 1386.43 Q194.352 1393.54 196.158 1397.11 Q197.987 1400.65 201.598 1400.65 Q205.232 1400.65 207.037 1397.11 Q208.866 1393.54 208.866 1386.43 Q208.866 1379.3 207.037 1375.76 Q205.232 1372.2 201.598 1372.2 M201.598 1368.49 Q207.408 1368.49 210.463 1373.1 Q213.542 1377.68 213.542 1386.43 Q213.542 1395.16 210.463 1399.77 Q207.408 1404.35 201.598 1404.35 Q195.787 1404.35 192.709 1399.77 Q189.653 1395.16 189.653 1386.43 Q189.653 1377.68 192.709 1373.1 Q195.787 1368.49 201.598 1368.49 Z" fill="#000000" fill-rule="evenodd" fill-opacity="1"></path><path clip-path="url(#clip360)" d="M127.2 1062.61 Q123.589 1062.61 121.76 1066.17 Q119.955 1069.72 119.955 1076.84 Q119.955 1083.95 121.76 1087.52 Q123.589 1091.06 127.2 1091.06 Q130.834 1091.06 132.64 1087.52 Q134.468 1083.95 134.468 1076.84 Q134.468 1069.72 132.64 1066.17 Q130.834 1062.61 127.2 1062.61 M127.2 1058.91 Q133.01 1058.91 136.066 1063.51 Q139.144 1068.09 139.144 1076.84 Q139.144 1085.57 136.066 1090.18 Q133.01 1094.76 127.2 1094.76 Q121.39 1094.76 118.311 1090.18 Q115.256 1085.57 115.256 1076.84 Q115.256 1068.09 118.311 1063.51 Q121.39 1058.91 127.2 1058.91 Z" fill="#000000" fill-rule="evenodd" fill-opacity="1"></path><path clip-path="url(#clip360)" d="M147.362 1088.21 L152.246 1088.21 L152.246 1094.09 L147.362 1094.09 L147.362 1088.21 Z" fill="#000000" fill-rule="evenodd" fill-opacity="1"></path><path clip-path="url(#clip360)" d="M166.459 1090.15 L182.778 1090.15 L182.778 1094.09 L160.834 1094.09 L160.834 1090.15 Q163.496 1087.4 168.079 1082.77 Q172.686 1078.12 173.866 1076.78 Q176.112 1074.25 176.991 1072.52 Q177.894 1070.76 177.894 1069.07 Q177.894 1066.31 175.95 1064.58 Q174.028 1062.84 170.927 1062.84 Q168.727 1062.84 166.274 1063.6 Q163.843 1064.37 161.065 1065.92 L161.065 1061.2 Q163.89 1060.06 166.343 1059.48 Q168.797 1058.91 170.834 1058.91 Q176.204 1058.91 179.399 1061.59 Q182.593 1064.28 182.593 1068.77 Q182.593 1070.9 181.783 1072.82 Q180.996 1074.72 178.889 1077.31 Q178.311 1077.98 175.209 1081.2 Q172.107 1084.39 166.459 1090.15 Z" fill="#000000" fill-rule="evenodd" fill-opacity="1"></path><path clip-path="url(#clip360)" d="M192.639 1059.53 L210.996 1059.53 L210.996 1063.47 L196.922 1063.47 L196.922 1071.94 Q197.94 1071.59 198.959 1071.43 Q199.977 1071.24 200.996 1071.24 Q206.783 1071.24 210.162 1074.41 Q213.542 1077.59 213.542 1083 Q213.542 1088.58 210.07 1091.68 Q206.598 1094.76 200.278 1094.76 Q198.102 1094.76 195.834 1094.39 Q193.588 1094.02 191.181 1093.28 L191.181 1088.58 Q193.264 1089.72 195.487 1090.27 Q197.709 1090.83 200.186 1090.83 Q204.19 1090.83 206.528 1088.72 Q208.866 1086.61 208.866 1083 Q208.866 1079.39 206.528 1077.28 Q204.19 1075.18 200.186 1075.18 Q198.311 1075.18 196.436 1075.59 Q194.584 1076.01 192.639 1076.89 L192.639 1059.53 Z" fill="#000000" fill-rule="evenodd" fill-opacity="1"></path><path clip-path="url(#clip360)" d="M126.205 753.019 Q122.593 753.019 120.765 756.584 Q118.959 760.126 118.959 767.255 Q118.959 774.362 120.765 777.926 Q122.593 781.468 126.205 781.468 Q129.839 781.468 131.644 777.926 Q133.473 774.362 133.473 767.255 Q133.473 760.126 131.644 756.584 Q129.839 753.019 126.205 753.019 M126.205 749.315 Q132.015 749.315 135.07 753.922 Q138.149 758.505 138.149 767.255 Q138.149 775.982 135.07 780.588 Q132.015 785.172 126.205 785.172 Q120.394 785.172 117.316 780.588 Q114.26 775.982 114.26 767.255 Q114.26 758.505 117.316 753.922 Q120.394 749.315 126.205 749.315 Z" fill="#000000" fill-rule="evenodd" fill-opacity="1"></path><path clip-path="url(#clip360)" d="M146.366 778.621 L151.251 778.621 L151.251 784.5 L146.366 784.5 L146.366 778.621 Z" fill="#000000" fill-rule="evenodd" fill-opacity="1"></path><path clip-path="url(#clip360)" d="M161.482 749.94 L179.839 749.94 L179.839 753.876 L165.765 753.876 L165.765 762.348 Q166.783 762.001 167.802 761.838 Q168.82 761.653 169.839 761.653 Q175.626 761.653 179.005 764.825 Q182.385 767.996 182.385 773.412 Q182.385 778.991 178.913 782.093 Q175.44 785.172 169.121 785.172 Q166.945 785.172 164.677 784.801 Q162.431 784.431 160.024 783.69 L160.024 778.991 Q162.107 780.125 164.329 780.681 Q166.552 781.237 169.028 781.237 Q173.033 781.237 175.371 779.13 Q177.709 777.024 177.709 773.412 Q177.709 769.801 175.371 767.695 Q173.033 765.588 169.028 765.588 Q167.153 765.588 165.278 766.005 Q163.427 766.422 161.482 767.301 L161.482 749.94 Z" fill="#000000" fill-rule="evenodd" fill-opacity="1"></path><path clip-path="url(#clip360)" d="M201.598 753.019 Q197.987 753.019 196.158 756.584 Q194.352 760.126 194.352 767.255 Q194.352 774.362 196.158 777.926 Q197.987 781.468 201.598 781.468 Q205.232 781.468 207.037 777.926 Q208.866 774.362 208.866 767.255 Q208.866 760.126 207.037 756.584 Q205.232 753.019 201.598 753.019 M201.598 749.315 Q207.408 749.315 210.463 753.922 Q213.542 758.505 213.542 767.255 Q213.542 775.982 210.463 780.588 Q207.408 785.172 201.598 785.172 Q195.787 785.172 192.709 780.588 Q189.653 775.982 189.653 767.255 Q189.653 758.505 192.709 753.922 Q195.787 749.315 201.598 749.315 Z" fill="#000000" fill-rule="evenodd" fill-opacity="1"></path><path clip-path="url(#clip360)" d="M127.2 443.429 Q123.589 443.429 121.76 446.994 Q119.955 450.536 119.955 457.665 Q119.955 464.772 121.76 468.337 Q123.589 471.878 127.2 471.878 Q130.834 471.878 132.64 468.337 Q134.468 464.772 134.468 457.665 Q134.468 450.536 132.64 446.994 Q130.834 443.429 127.2 443.429 M127.2 439.726 Q133.01 439.726 136.066 444.332 Q139.144 448.916 139.144 457.665 Q139.144 466.392 136.066 470.999 Q133.01 475.582 127.2 475.582 Q121.39 475.582 118.311 470.999 Q115.256 466.392 115.256 457.665 Q115.256 448.916 118.311 444.332 Q121.39 439.726 127.2 439.726 Z" fill="#000000" fill-rule="evenodd" fill-opacity="1"></path><path clip-path="url(#clip360)" d="M147.362 469.031 L152.246 469.031 L152.246 474.911 L147.362 474.911 L147.362 469.031 Z" fill="#000000" fill-rule="evenodd" fill-opacity="1"></path><path clip-path="url(#clip360)" d="M161.251 440.351 L183.473 440.351 L183.473 442.341 L170.927 474.911 L166.042 474.911 L177.848 444.286 L161.251 444.286 L161.251 440.351 Z" fill="#000000" fill-rule="evenodd" fill-opacity="1"></path><path clip-path="url(#clip360)" d="M192.639 440.351 L210.996 440.351 L210.996 444.286 L196.922 444.286 L196.922 452.758 Q197.94 452.411 198.959 452.249 Q199.977 452.064 200.996 452.064 Q206.783 452.064 210.162 455.235 Q213.542 458.406 213.542 463.823 Q213.542 469.402 210.07 472.503 Q206.598 475.582 200.278 475.582 Q198.102 475.582 195.834 475.212 Q193.588 474.841 191.181 474.101 L191.181 469.402 Q193.264 470.536 195.487 471.091 Q197.709 471.647 200.186 471.647 Q204.19 471.647 206.528 469.54 Q208.866 467.434 208.866 463.823 Q208.866 460.212 206.528 458.105 Q204.19 455.999 200.186 455.999 Q198.311 455.999 196.436 456.415 Q194.584 456.832 192.639 457.712 L192.639 440.351 Z" fill="#000000" fill-rule="evenodd" fill-opacity="1"></path><path clip-path="url(#clip360)" d="M117.015 161.386 L124.654 161.386 L124.654 135.02 L116.343 136.687 L116.343 132.428 L124.607 130.761 L129.283 130.761 L129.283 161.386 L136.922 161.386 L136.922 165.321 L117.015 165.321 L117.015 161.386 Z" fill="#000000" fill-rule="evenodd" fill-opacity="1"></path><path clip-path="url(#clip360)" d="M146.366 159.442 L151.251 159.442 L151.251 165.321 L146.366 165.321 L146.366 159.442 Z" fill="#000000" fill-rule="evenodd" fill-opacity="1"></path><path clip-path="url(#clip360)" d="M171.436 133.84 Q167.825 133.84 165.996 137.405 Q164.19 140.946 164.19 148.076 Q164.19 155.182 165.996 158.747 Q167.825 162.289 171.436 162.289 Q175.07 162.289 176.876 158.747 Q178.704 155.182 178.704 148.076 Q178.704 140.946 176.876 137.405 Q175.07 133.84 171.436 133.84 M171.436 130.136 Q177.246 130.136 180.301 134.743 Q183.38 139.326 183.38 148.076 Q183.38 156.803 180.301 161.409 Q177.246 165.992 171.436 165.992 Q165.626 165.992 162.547 161.409 Q159.491 156.803 159.491 148.076 Q159.491 139.326 162.547 134.743 Q165.626 130.136 171.436 130.136 Z" fill="#000000" fill-rule="evenodd" fill-opacity="1"></path><path clip-path="url(#clip360)" d="M201.598 133.84 Q197.987 133.84 196.158 137.405 Q194.352 140.946 194.352 148.076 Q194.352 155.182 196.158 158.747 Q197.987 162.289 201.598 162.289 Q205.232 162.289 207.037 158.747 Q208.866 155.182 208.866 148.076 Q208.866 140.946 207.037 137.405 Q205.232 133.84 201.598 133.84 M201.598 130.136 Q207.408 130.136 210.463 134.743 Q213.542 139.326 213.542 148.076 Q213.542 156.803 210.463 161.409 Q207.408 165.992 201.598 165.992 Q195.787 165.992 192.709 161.409 Q189.653 156.803 189.653 148.076 Q189.653 139.326 192.709 134.743 Q195.787 130.136 201.598 130.136 Z" fill="#000000" fill-rule="evenodd" fill-opacity="1"></path><path clip-path="url(#clip360)" d="M22.818 1318.28 L46.4666 1327 L46.4666 1309.53 L22.818 1318.28 M16.4842 1321.91 L16.4842 1314.62 L64.0042 1296.51 L64.0042 1303.19 L51.8138 1307.52 L51.8138 1328.94 L64.0042 1333.27 L64.0042 1340.05 L16.4842 1321.91 Z" fill="#000000" fill-rule="evenodd" fill-opacity="1"></path><path clip-path="url(#clip360)" d="M28.3562 1297.84 L28.3562 1291.64 L58.275 1280.5 L28.3562 1269.36 L28.3562 1263.15 L64.0042 1276.52 L64.0042 1284.48 L28.3562 1297.84 Z" fill="#000000" fill-rule="evenodd" fill-opacity="1"></path><path clip-path="url(#clip360)" d="M44.7161 1224.58 L47.5806 1224.58 L47.5806 1251.5 Q53.6281 1251.12 56.8109 1247.87 Q59.9619 1244.6 59.9619 1238.77 Q59.9619 1235.4 59.1344 1232.25 Q58.3069 1229.06 56.6518 1225.94 L62.1899 1225.94 Q63.5267 1229.09 64.227 1232.4 Q64.9272 1235.71 64.9272 1239.12 Q64.9272 1247.65 59.9619 1252.65 Q54.9967 1257.61 46.5303 1257.61 Q37.7774 1257.61 32.6531 1252.9 Q27.4968 1248.16 27.4968 1240.14 Q27.4968 1232.95 32.1438 1228.78 Q36.7589 1224.58 44.7161 1224.58 M42.9973 1230.43 Q38.1912 1230.5 35.3266 1233.14 Q32.4621 1235.75 32.4621 1240.08 Q32.4621 1244.98 35.2312 1247.94 Q38.0002 1250.87 43.0292 1251.31 L42.9973 1230.43 Z" fill="#000000" fill-rule="evenodd" fill-opacity="1"></path><path clip-path="url(#clip360)" d="M33.8307 1194.31 Q33.2578 1195.29 33.0032 1196.47 Q32.7167 1197.62 32.7167 1199.02 Q32.7167 1203.98 35.9632 1206.66 Q39.1779 1209.3 45.2253 1209.3 L64.0042 1209.3 L64.0042 1215.19 L28.3562 1215.19 L28.3562 1209.3 L33.8944 1209.3 Q30.6479 1207.45 29.0883 1204.49 Q27.4968 1201.53 27.4968 1197.3 Q27.4968 1196.69 27.5923 1195.96 Q27.656 1195.23 27.8151 1194.34 L33.8307 1194.31 Z" fill="#000000" fill-rule="evenodd" fill-opacity="1"></path><path clip-path="url(#clip360)" d="M46.0847 1171.96 Q46.0847 1179.06 47.7079 1181.8 Q49.3312 1184.53 53.2461 1184.53 Q56.3653 1184.53 58.2114 1182.5 Q60.0256 1180.43 60.0256 1176.9 Q60.0256 1172.03 56.5881 1169.1 Q53.1188 1166.14 47.3897 1166.14 L46.0847 1166.14 L46.0847 1171.96 M43.6657 1160.28 L64.0042 1160.28 L64.0042 1166.14 L58.5933 1166.14 Q61.8398 1168.14 63.3994 1171.13 Q64.9272 1174.13 64.9272 1178.46 Q64.9272 1183.93 61.8716 1187.18 Q58.7843 1190.39 53.6281 1190.39 Q47.6125 1190.39 44.5569 1186.38 Q41.5014 1182.34 41.5014 1174.35 L41.5014 1166.14 L40.9285 1166.14 Q36.8862 1166.14 34.6901 1168.81 Q32.4621 1171.45 32.4621 1176.26 Q32.4621 1179.31 33.1941 1182.21 Q33.9262 1185.11 35.3903 1187.78 L29.9795 1187.78 Q28.7381 1184.57 28.1334 1181.54 Q27.4968 1178.52 27.4968 1175.65 Q27.4968 1167.92 31.5072 1164.1 Q35.5176 1160.28 43.6657 1160.28 Z" fill="#000000" fill-rule="evenodd" fill-opacity="1"></path><path clip-path="url(#clip360)" d="M45.7664 1124.76 Q39.4007 1124.76 35.8996 1127.4 Q32.3984 1130.01 32.3984 1134.75 Q32.3984 1139.47 35.8996 1142.11 Q39.4007 1144.72 45.7664 1144.72 Q52.1003 1144.72 55.6014 1142.11 Q59.1026 1139.47 59.1026 1134.75 Q59.1026 1130.01 55.6014 1127.4 Q52.1003 1124.76 45.7664 1124.76 M59.58 1118.9 Q68.683 1118.9 73.1071 1122.95 Q77.5631 1126.99 77.5631 1135.33 Q77.5631 1138.42 77.0857 1141.15 Q76.6401 1143.89 75.6852 1146.47 L69.9879 1146.47 Q71.3884 1143.89 72.0568 1141.38 Q72.7252 1138.86 72.7252 1136.25 Q72.7252 1130.49 69.7015 1127.63 Q66.7096 1124.76 60.6303 1124.76 L57.7339 1124.76 Q60.885 1126.57 62.4446 1129.41 Q64.0042 1132.24 64.0042 1136.19 Q64.0042 1142.74 59.0071 1146.75 Q54.01 1150.76 45.7664 1150.76 Q37.491 1150.76 32.4939 1146.75 Q27.4968 1142.74 27.4968 1136.19 Q27.4968 1132.24 29.0564 1129.41 Q30.616 1126.57 33.7671 1124.76 L28.3562 1124.76 L28.3562 1118.9 L59.58 1118.9 Z" fill="#000000" fill-rule="evenodd" fill-opacity="1"></path><path clip-path="url(#clip360)" d="M44.7161 1076.35 L47.5806 1076.35 L47.5806 1103.28 Q53.6281 1102.89 56.8109 1099.65 Q59.9619 1096.37 59.9619 1090.55 Q59.9619 1087.17 59.1344 1084.02 Q58.3069 1080.84 56.6518 1077.72 L62.1899 1077.72 Q63.5267 1080.87 64.227 1084.18 Q64.9272 1087.49 64.9272 1090.9 Q64.9272 1099.43 59.9619 1104.42 Q54.9967 1109.39 46.5303 1109.39 Q37.7774 1109.39 32.6531 1104.68 Q27.4968 1099.93 27.4968 1091.91 Q27.4968 1084.72 32.1438 1080.55 Q36.7589 1076.35 44.7161 1076.35 M42.9973 1082.21 Q38.1912 1082.27 35.3266 1084.91 Q32.4621 1087.52 32.4621 1091.85 Q32.4621 1096.75 35.2312 1099.71 Q38.0002 1102.64 43.0292 1103.09 L42.9973 1082.21 Z" fill="#000000" fill-rule="evenodd" fill-opacity="1"></path><path clip-path="url(#clip360)" d="M16.4842 1045.76 L16.4842 1036.18 L48.8219 1024.06 L16.4842 1011.86 L16.4842 1002.28 L64.0042 1002.28 L64.0042 1008.55 L22.277 1008.55 L54.8694 1020.81 L54.8694 1027.27 L22.277 1039.52 L64.0042 1039.52 L64.0042 1045.76 L16.4842 1045.76 Z" fill="#000000" fill-rule="evenodd" fill-opacity="1"></path><path clip-path="url(#clip360)" d="M46.0847 973.575 Q46.0847 980.673 47.7079 983.41 Q49.3312 986.147 53.2461 986.147 Q56.3653 986.147 58.2114 984.11 Q60.0256 982.042 60.0256 978.509 Q60.0256 973.639 56.5881 970.711 Q53.1188 967.751 47.3897 967.751 L46.0847 967.751 L46.0847 973.575 M43.6657 961.894 L64.0042 961.894 L64.0042 967.751 L58.5933 967.751 Q61.8398 969.756 63.3994 972.748 Q64.9272 975.74 64.9272 980.068 Q64.9272 985.543 61.8716 988.789 Q58.7843 992.004 53.6281 992.004 Q47.6125 992.004 44.5569 987.994 Q41.5014 983.951 41.5014 975.962 L41.5014 967.751 L40.9285 967.751 Q36.8862 967.751 34.6901 970.424 Q32.4621 973.066 32.4621 977.872 Q32.4621 980.928 33.1941 983.824 Q33.9262 986.72 35.3903 989.394 L29.9795 989.394 Q28.7381 986.179 28.1334 983.156 Q27.4968 980.132 27.4968 977.267 Q27.4968 969.533 31.5072 965.714 Q35.5176 961.894 43.6657 961.894 Z" fill="#000000" fill-rule="evenodd" fill-opacity="1"></path><path clip-path="url(#clip360)" d="M28.3562 920.199 L45.7028 933.089 L64.0042 919.53 L64.0042 926.437 L49.9996 936.813 L64.0042 947.189 L64.0042 954.096 L45.3526 940.251 L28.3562 952.918 L28.3562 946.012 L41.0558 936.559 L28.3562 927.106 L28.3562 920.199 Z" fill="#000000" fill-rule="evenodd" fill-opacity="1"></path><path clip-path="url(#clip360)" d="M16.4842 890.28 L16.4842 862.971 L21.895 862.971 L21.895 883.851 L35.8996 883.851 L35.8996 865.008 L41.3104 865.008 L41.3104 883.851 L64.0042 883.851 L64.0042 890.28 L16.4842 890.28 Z" fill="#000000" fill-rule="evenodd" fill-opacity="1"></path><path clip-path="url(#clip360)" d="M33.8307 837.126 Q33.2578 838.113 33.0032 839.291 Q32.7167 840.436 32.7167 841.837 Q32.7167 846.802 35.9632 849.476 Q39.1779 852.118 45.2253 852.118 L64.0042 852.118 L64.0042 858.006 L28.3562 858.006 L28.3562 852.118 L33.8944 852.118 Q30.6479 850.271 29.0883 847.311 Q27.4968 844.351 27.4968 840.118 Q27.4968 839.513 27.5923 838.781 Q27.656 838.049 27.8151 837.158 L33.8307 837.126 Z" fill="#000000" fill-rule="evenodd" fill-opacity="1"></path><path clip-path="url(#clip360)" d="M46.0847 814.783 Q46.0847 821.88 47.7079 824.618 Q49.3312 827.355 53.2461 827.355 Q56.3653 827.355 58.2114 825.318 Q60.0256 823.249 60.0256 819.716 Q60.0256 814.846 56.5881 811.918 Q53.1188 808.958 47.3897 808.958 L46.0847 808.958 L46.0847 814.783 M43.6657 803.102 L64.0042 803.102 L64.0042 808.958 L58.5933 808.958 Q61.8398 810.963 63.3994 813.955 Q64.9272 816.947 64.9272 821.276 Q64.9272 826.75 61.8716 829.997 Q58.7843 833.211 53.6281 833.211 Q47.6125 833.211 44.5569 829.201 Q41.5014 825.159 41.5014 817.17 L41.5014 808.958 L40.9285 808.958 Q36.8862 808.958 34.6901 811.632 Q32.4621 814.273 32.4621 819.08 Q32.4621 822.135 33.1941 825.031 Q33.9262 827.928 35.3903 830.601 L29.9795 830.601 Q28.7381 827.387 28.1334 824.363 Q27.4968 821.339 27.4968 818.475 Q27.4968 810.74 31.5072 806.921 Q35.5176 803.102 43.6657 803.102 Z" fill="#000000" fill-rule="evenodd" fill-opacity="1"></path><path clip-path="url(#clip360)" d="M29.7248 765.385 L35.1993 765.385 Q33.8307 767.867 33.1623 770.382 Q32.4621 772.864 32.4621 775.411 Q32.4621 781.108 36.0905 784.259 Q39.6872 787.41 46.212 787.41 Q52.7369 787.41 56.3653 784.259 Q59.9619 781.108 59.9619 775.411 Q59.9619 772.864 59.2935 770.382 Q58.5933 767.867 57.2247 765.385 L62.6355 765.385 Q63.7814 767.836 64.3543 770.477 Q64.9272 773.087 64.9272 776.047 Q64.9272 784.1 59.8664 788.842 Q54.8057 793.585 46.212 793.585 Q37.491 793.585 32.4939 788.811 Q27.4968 784.004 27.4968 775.665 Q27.4968 772.96 28.0697 770.382 Q28.6108 767.804 29.7248 765.385 Z" fill="#000000" fill-rule="evenodd" fill-opacity="1"></path><path clip-path="url(#clip360)" d="M18.2347 749.407 L28.3562 749.407 L28.3562 737.344 L32.9077 737.344 L32.9077 749.407 L52.2594 749.407 Q56.6199 749.407 57.8613 748.229 Q59.1026 747.02 59.1026 743.359 L59.1026 737.344 L64.0042 737.344 L64.0042 743.359 Q64.0042 750.139 61.4897 752.717 Q58.9434 755.295 52.2594 755.295 L32.9077 755.295 L32.9077 759.592 L28.3562 759.592 L28.3562 755.295 L18.2347 755.295 L18.2347 749.407 Z" fill="#000000" fill-rule="evenodd" fill-opacity="1"></path><path clip-path="url(#clip360)" d="M28.3562 729.641 L28.3562 723.785 L64.0042 723.785 L64.0042 729.641 L28.3562 729.641 M14.479 729.641 L14.479 723.785 L21.895 723.785 L21.895 729.641 L14.479 729.641 Z" fill="#000000" fill-rule="evenodd" fill-opacity="1"></path><path clip-path="url(#clip360)" d="M32.4621 697.717 Q32.4621 702.428 36.1542 705.165 Q39.8145 707.902 46.212 707.902 Q52.6095 707.902 56.3017 705.197 Q59.9619 702.46 59.9619 697.717 Q59.9619 693.039 56.2698 690.301 Q52.5777 687.564 46.212 687.564 Q39.8781 687.564 36.186 690.301 Q32.4621 693.039 32.4621 697.717 M27.4968 697.717 Q27.4968 690.078 32.4621 685.718 Q37.4273 681.357 46.212 681.357 Q54.9649 681.357 59.9619 685.718 Q64.9272 690.078 64.9272 697.717 Q64.9272 705.388 59.9619 709.748 Q54.9649 714.077 46.212 714.077 Q37.4273 714.077 32.4621 709.748 Q27.4968 705.388 27.4968 697.717 Z" fill="#000000" fill-rule="evenodd" fill-opacity="1"></path><path clip-path="url(#clip360)" d="M42.4881 642.017 L64.0042 642.017 L64.0042 647.874 L42.679 647.874 Q37.6183 647.874 35.1038 649.847 Q32.5894 651.821 32.5894 655.767 Q32.5894 660.51 35.6131 663.247 Q38.6368 665.984 43.8567 665.984 L64.0042 665.984 L64.0042 671.873 L28.3562 671.873 L28.3562 665.984 L33.8944 665.984 Q30.6797 663.884 29.0883 661.051 Q27.4968 658.186 27.4968 654.462 Q27.4968 648.319 31.3163 645.168 Q35.1038 642.017 42.4881 642.017 Z" fill="#000000" fill-rule="evenodd" fill-opacity="1"></path><path clip-path="url(#clip360)" d="M46.0847 614.136 Q46.0847 621.233 47.7079 623.971 Q49.3312 626.708 53.2461 626.708 Q56.3653 626.708 58.2114 624.671 Q60.0256 622.602 60.0256 619.069 Q60.0256 614.199 56.5881 611.271 Q53.1188 608.311 47.3897 608.311 L46.0847 608.311 L46.0847 614.136 M43.6657 602.455 L64.0042 602.455 L64.0042 608.311 L58.5933 608.311 Q61.8398 610.316 63.3994 613.308 Q64.9272 616.3 64.9272 620.629 Q64.9272 626.103 61.8716 629.35 Q58.7843 632.564 53.6281 632.564 Q47.6125 632.564 44.5569 628.554 Q41.5014 624.512 41.5014 616.523 L41.5014 608.311 L40.9285 608.311 Q36.8862 608.311 34.6901 610.985 Q32.4621 613.626 32.4621 618.432 Q32.4621 621.488 33.1941 624.384 Q33.9262 627.281 35.3903 629.954 L29.9795 629.954 Q28.7381 626.74 28.1334 623.716 Q27.4968 620.692 27.4968 617.828 Q27.4968 610.093 31.5072 606.274 Q35.5176 602.455 43.6657 602.455 Z" fill="#000000" fill-rule="evenodd" fill-opacity="1"></path><path clip-path="url(#clip360)" d="M14.479 590.391 L14.479 584.535 L64.0042 584.535 L64.0042 590.391 L14.479 590.391 Z" fill="#000000" fill-rule="evenodd" fill-opacity="1"></path><path clip-path="url(#clip360)" d="M16.4842 551.306 L16.4842 523.997 L21.895 523.997 L21.895 544.877 L35.8996 544.877 L35.8996 526.034 L41.3104 526.034 L41.3104 544.877 L64.0042 544.877 L64.0042 551.306 L16.4842 551.306 Z" fill="#000000" fill-rule="evenodd" fill-opacity="1"></path><path clip-path="url(#clip360)" d="M32.4621 502.577 Q32.4621 507.287 36.1542 510.024 Q39.8145 512.762 46.212 512.762 Q52.6095 512.762 56.3017 510.056 Q59.9619 507.319 59.9619 502.577 Q59.9619 497.898 56.2698 495.161 Q52.5777 492.423 46.212 492.423 Q39.8781 492.423 36.186 495.161 Q32.4621 497.898 32.4621 502.577 M27.4968 502.577 Q27.4968 494.938 32.4621 490.577 Q37.4273 486.217 46.212 486.217 Q54.9649 486.217 59.9619 490.577 Q64.9272 494.938 64.9272 502.577 Q64.9272 510.247 59.9619 514.608 Q54.9649 518.936 46.212 518.936 Q37.4273 518.936 32.4621 514.608 Q27.4968 510.247 27.4968 502.577 Z" fill="#000000" fill-rule="evenodd" fill-opacity="1"></path><path clip-path="url(#clip360)" d="M33.8307 455.852 Q33.2578 456.839 33.0032 458.017 Q32.7167 459.162 32.7167 460.563 Q32.7167 465.528 35.9632 468.202 Q39.1779 470.844 45.2253 470.844 L64.0042 470.844 L64.0042 476.732 L28.3562 476.732 L28.3562 470.844 L33.8944 470.844 Q30.6479 468.997 29.0883 466.037 Q27.4968 463.077 27.4968 458.844 Q27.4968 458.239 27.5923 457.507 Q27.656 456.775 27.8151 455.884 L33.8307 455.852 Z" fill="#000000" fill-rule="evenodd" fill-opacity="1"></path><path clip-path="url(#clip360)" d="M44.7161 420.65 L47.5806 420.65 L47.5806 447.577 Q53.6281 447.195 56.8109 443.948 Q59.9619 440.67 59.9619 434.845 Q59.9619 431.472 59.1344 428.321 Q58.3069 425.138 56.6518 422.019 L62.1899 422.019 Q63.5267 425.17 64.227 428.48 Q64.9272 431.79 64.9272 435.196 Q64.9272 443.726 59.9619 448.723 Q54.9967 453.688 46.5303 453.688 Q37.7774 453.688 32.6531 448.977 Q27.4968 444.235 27.4968 436.214 Q27.4968 429.021 32.1438 424.851 Q36.7589 420.65 44.7161 420.65 M42.9973 426.506 Q38.1912 426.57 35.3266 429.212 Q32.4621 431.822 32.4621 436.15 Q32.4621 441.052 35.2312 444.012 Q38.0002 446.94 43.0292 447.386 L42.9973 426.506 Z" fill="#000000" fill-rule="evenodd" fill-opacity="1"></path><path clip-path="url(#clip360)" d="M29.4065 388.312 L34.9447 388.312 Q33.6716 390.795 33.035 393.468 Q32.3984 396.142 32.3984 399.007 Q32.3984 403.367 33.7352 405.563 Q35.072 407.728 37.7456 407.728 Q39.7826 407.728 40.9603 406.168 Q42.1061 404.608 43.1565 399.898 L43.6021 397.893 Q44.9389 391.654 47.3897 389.044 Q49.8086 386.402 54.1691 386.402 Q59.1344 386.402 62.0308 390.349 Q64.9272 394.264 64.9272 401.139 Q64.9272 404.004 64.3543 407.123 Q63.8132 410.21 62.6992 413.648 L56.6518 413.648 Q58.3387 410.401 59.198 407.25 Q60.0256 404.099 60.0256 401.012 Q60.0256 396.874 58.6251 394.646 Q57.1929 392.418 54.6147 392.418 Q52.2276 392.418 50.9545 394.041 Q49.6813 395.633 48.5037 401.075 L48.0262 403.112 Q46.8804 408.555 44.5251 410.974 Q42.138 413.393 38.0002 413.393 Q32.9713 413.393 30.2341 409.828 Q27.4968 406.263 27.4968 399.707 Q27.4968 396.46 27.9743 393.596 Q28.4517 390.731 29.4065 388.312 Z" fill="#000000" fill-rule="evenodd" fill-opacity="1"></path><path clip-path="url(#clip360)" d="M18.2347 371.284 L28.3562 371.284 L28.3562 359.221 L32.9077 359.221 L32.9077 371.284 L52.2594 371.284 Q56.6199 371.284 57.8613 370.106 Q59.1026 368.897 59.1026 365.236 L59.1026 359.221 L64.0042 359.221 L64.0042 365.236 Q64.0042 372.016 61.4897 374.594 Q58.9434 377.172 52.2594 377.172 L32.9077 377.172 L32.9077 381.469 L28.3562 381.469 L28.3562 377.172 L18.2347 377.172 L18.2347 371.284 Z" fill="#000000" fill-rule="evenodd" fill-opacity="1"></path><path clip-path="url(#clip360)" d="M18.0438 302.057 L24.314 302.057 Q22.5634 305.717 21.704 308.964 Q20.8447 312.21 20.8447 315.234 Q20.8447 320.486 22.8817 323.35 Q24.9187 326.183 28.6745 326.183 Q31.8255 326.183 33.4488 324.305 Q35.0402 322.395 36.0269 317.112 L36.8226 313.229 Q38.1912 306.035 41.6605 302.63 Q45.098 299.192 50.8908 299.192 Q57.7976 299.192 61.3624 303.839 Q64.9272 308.454 64.9272 317.398 Q64.9272 320.772 64.1633 324.591 Q63.3994 328.379 61.9035 332.453 L55.2831 332.453 Q57.4793 328.538 58.5933 324.782 Q59.7073 321.027 59.7073 317.398 Q59.7073 311.892 57.543 308.9 Q55.3786 305.908 51.3682 305.908 Q47.8671 305.908 45.8937 308.072 Q43.9204 310.205 42.9337 315.107 L42.1698 319.021 Q40.7375 326.215 37.682 329.429 Q34.6264 332.644 29.1837 332.644 Q22.8817 332.644 19.2532 328.22 Q15.6248 323.764 15.6248 315.966 Q15.6248 312.624 16.2295 309.155 Q16.8343 305.685 18.0438 302.057 Z" fill="#000000" fill-rule="evenodd" fill-opacity="1"></path><path clip-path="url(#clip360)" d="M28.3562 289.421 L28.3562 283.564 L64.0042 283.564 L64.0042 289.421 L28.3562 289.421 M14.479 289.421 L14.479 283.564 L21.895 283.564 L21.895 289.421 L14.479 289.421 Z" fill="#000000" fill-rule="evenodd" fill-opacity="1"></path><path clip-path="url(#clip360)" d="M28.3562 273.857 L28.3562 246.039 L33.7034 246.039 L59.3254 268.064 L59.3254 246.039 L64.0042 246.039 L64.0042 274.652 L58.657 274.652 L33.035 252.627 L33.035 273.857 L28.3562 273.857 Z" fill="#000000" fill-rule="evenodd" fill-opacity="1"></path><path clip-path="url(#clip360)" d="M44.7161 206.603 L47.5806 206.603 L47.5806 233.53 Q53.6281 233.148 56.8109 229.902 Q59.9619 226.623 59.9619 220.799 Q59.9619 217.425 59.1344 214.274 Q58.3069 211.091 56.6518 207.972 L62.1899 207.972 Q63.5267 211.123 64.227 214.433 Q64.9272 217.743 64.9272 221.149 Q64.9272 229.679 59.9619 234.676 Q54.9967 239.641 46.5303 239.641 Q37.7774 239.641 32.6531 234.93 Q27.4968 230.188 27.4968 222.167 Q27.4968 214.974 32.1438 210.804 Q36.7589 206.603 44.7161 206.603 M42.9973 212.459 Q38.1912 212.523 35.3266 215.165 Q32.4621 217.775 32.4621 222.104 Q32.4621 227.005 35.2312 229.965 Q38.0002 232.893 43.0292 233.339 L42.9973 212.459 Z" fill="#000000" fill-rule="evenodd" fill-opacity="1"></path><path clip-path="url(#clip360)" d="M1087.14 18.8205 L1087.14 41.5461 L1097.43 41.5461 Q1103.14 41.5461 1106.26 38.5889 Q1109.38 35.6318 1109.38 30.163 Q1109.38 24.7348 1106.26 21.7777 Q1103.14 18.8205 1097.43 18.8205 L1087.14 18.8205 M1078.96 12.096 L1097.43 12.096 Q1107.6 12.096 1112.78 16.714 Q1118.01 21.2916 1118.01 30.163 Q1118.01 39.1155 1112.78 43.6931 Q1107.6 48.2706 1097.43 48.2706 L1087.14 48.2706 L1087.14 72.576 L1078.96 72.576 L1078.96 12.096 Z" fill="#000000" fill-rule="evenodd" fill-opacity="1"></path><path clip-path="url(#clip360)" d="M1164.51 48.0275 L1164.51 51.6733 L1130.24 51.6733 Q1130.73 59.3701 1134.86 63.421 Q1139.03 67.4314 1146.44 67.4314 Q1150.74 67.4314 1154.75 66.3781 Q1158.8 65.3249 1162.77 63.2184 L1162.77 70.267 Q1158.76 71.9684 1154.55 72.8596 Q1150.33 73.7508 1146 73.7508 Q1135.14 73.7508 1128.78 67.4314 Q1122.46 61.1119 1122.46 50.3365 Q1122.46 39.1965 1128.46 32.6746 Q1134.49 26.1121 1144.7 26.1121 Q1153.86 26.1121 1159.16 32.0264 Q1164.51 37.9003 1164.51 48.0275 M1157.06 45.84 Q1156.98 39.7232 1153.62 36.0774 Q1150.29 32.4315 1144.78 32.4315 Q1138.55 32.4315 1134.78 35.9558 Q1131.05 39.4801 1130.48 45.8805 L1157.06 45.84 Z" fill="#000000" fill-rule="evenodd" fill-opacity="1"></path><path clip-path="url(#clip360)" d="M1203.04 34.1734 Q1201.78 33.4443 1200.28 33.1202 Q1198.82 32.7556 1197.04 32.7556 Q1190.72 32.7556 1187.32 36.8875 Q1183.96 40.9789 1183.96 48.6757 L1183.96 72.576 L1176.46 72.576 L1176.46 27.2059 L1183.96 27.2059 L1183.96 34.2544 Q1186.31 30.1225 1190.07 28.1376 Q1193.84 26.1121 1199.23 26.1121 Q1200 26.1121 1200.93 26.2337 Q1201.86 26.3147 1203 26.5172 L1203.04 34.1734 Z" fill="#000000" fill-rule="evenodd" fill-opacity="1"></path><path clip-path="url(#clip360)" d="M1241.68 28.9478 L1241.68 35.9153 Q1238.52 34.1734 1235.32 33.3227 Q1232.16 32.4315 1228.92 32.4315 Q1221.67 32.4315 1217.66 37.0496 Q1213.65 41.6271 1213.65 49.9314 Q1213.65 58.2358 1217.66 62.8538 Q1221.67 67.4314 1228.92 67.4314 Q1232.16 67.4314 1235.32 66.5807 Q1238.52 65.6895 1241.68 63.9476 L1241.68 70.8341 Q1238.56 72.2924 1235.2 73.0216 Q1231.88 73.7508 1228.11 73.7508 Q1217.86 73.7508 1211.83 67.3098 Q1205.79 60.8689 1205.79 49.9314 Q1205.79 38.832 1211.87 32.472 Q1217.98 26.1121 1228.6 26.1121 Q1232.04 26.1121 1235.32 26.8413 Q1238.6 27.5299 1241.68 28.9478 Z" fill="#000000" fill-rule="evenodd" fill-opacity="1"></path><path clip-path="url(#clip360)" d="M1272.23 32.4315 Q1266.23 32.4315 1262.75 37.1306 Q1259.26 41.7891 1259.26 49.9314 Q1259.26 58.0738 1262.71 62.7728 Q1266.19 67.4314 1272.23 67.4314 Q1278.18 67.4314 1281.66 62.7323 Q1285.15 58.0333 1285.15 49.9314 Q1285.15 41.8701 1281.66 37.1711 Q1278.18 32.4315 1272.23 32.4315 M1272.23 26.1121 Q1281.95 26.1121 1287.5 32.4315 Q1293.05 38.7509 1293.05 49.9314 Q1293.05 61.0714 1287.5 67.4314 Q1281.95 73.7508 1272.23 73.7508 Q1262.46 73.7508 1256.91 67.4314 Q1251.4 61.0714 1251.4 49.9314 Q1251.4 38.7509 1256.91 32.4315 Q1262.46 26.1121 1272.23 26.1121 Z" fill="#000000" fill-rule="evenodd" fill-opacity="1"></path><path clip-path="url(#clip360)" d="M1305.4 9.54393 L1312.86 9.54393 L1312.86 72.576 L1305.4 72.576 L1305.4 9.54393 Z" fill="#000000" fill-rule="evenodd" fill-opacity="1"></path><path clip-path="url(#clip360)" d="M1349.07 49.7694 Q1340.04 49.7694 1336.55 51.8354 Q1333.07 53.9013 1333.07 58.8839 Q1333.07 62.8538 1335.66 65.2034 Q1338.3 67.5124 1342.79 67.5124 Q1348.99 67.5124 1352.72 63.1374 Q1356.48 58.7219 1356.48 51.4303 L1356.48 49.7694 L1349.07 49.7694 M1363.94 46.6907 L1363.94 72.576 L1356.48 72.576 L1356.48 65.6895 Q1353.93 69.8214 1350.12 71.8063 Q1346.32 73.7508 1340.81 73.7508 Q1333.84 73.7508 1329.71 69.8619 Q1325.62 65.9325 1325.62 59.3701 Q1325.62 51.7138 1330.72 47.825 Q1335.87 43.9361 1346.03 43.9361 L1356.48 43.9361 L1356.48 43.2069 Q1356.48 38.0623 1353.08 35.2672 Q1349.72 32.4315 1343.6 32.4315 Q1339.71 32.4315 1336.03 33.3632 Q1332.34 34.295 1328.94 36.1584 L1328.94 29.2718 Q1333.03 27.692 1336.88 26.9223 Q1340.73 26.1121 1344.37 26.1121 Q1354.22 26.1121 1359.08 31.2163 Q1363.94 36.3204 1363.94 46.6907 Z" fill="#000000" fill-rule="evenodd" fill-opacity="1"></path><path clip-path="url(#clip360)" d="M1386.66 14.324 L1386.66 27.2059 L1402.02 27.2059 L1402.02 32.9987 L1386.66 32.9987 L1386.66 57.6282 Q1386.66 63.1779 1388.16 64.7578 Q1389.7 66.3376 1394.36 66.3376 L1402.02 66.3376 L1402.02 72.576 L1394.36 72.576 Q1385.73 72.576 1382.45 69.3758 Q1379.17 66.1351 1379.17 57.6282 L1379.17 32.9987 L1373.7 32.9987 L1373.7 27.2059 L1379.17 27.2059 L1379.17 14.324 L1386.66 14.324 Z" fill="#000000" fill-rule="evenodd" fill-opacity="1"></path><path clip-path="url(#clip360)" d="M1411.82 27.2059 L1419.27 27.2059 L1419.27 72.576 L1411.82 72.576 L1411.82 27.2059 M1411.82 9.54393 L1419.27 9.54393 L1419.27 18.9825 L1411.82 18.9825 L1411.82 9.54393 Z" fill="#000000" fill-rule="evenodd" fill-opacity="1"></path><path clip-path="url(#clip360)" d="M1452.45 32.4315 Q1446.45 32.4315 1442.97 37.1306 Q1439.49 41.7891 1439.49 49.9314 Q1439.49 58.0738 1442.93 62.7728 Q1446.41 67.4314 1452.45 67.4314 Q1458.41 67.4314 1461.89 62.7323 Q1465.37 58.0333 1465.37 49.9314 Q1465.37 41.8701 1461.89 37.1711 Q1458.41 32.4315 1452.45 32.4315 M1452.45 26.1121 Q1462.17 26.1121 1467.72 32.4315 Q1473.27 38.7509 1473.27 49.9314 Q1473.27 61.0714 1467.72 67.4314 Q1462.17 73.7508 1452.45 73.7508 Q1442.69 73.7508 1437.14 67.4314 Q1431.63 61.0714 1431.63 49.9314 Q1431.63 38.7509 1437.14 32.4315 Q1442.69 26.1121 1452.45 26.1121 Z" fill="#000000" fill-rule="evenodd" fill-opacity="1"></path><path clip-path="url(#clip360)" d="M1523.34 45.1919 L1523.34 72.576 L1515.89 72.576 L1515.89 45.4349 Q1515.89 38.994 1513.38 35.7938 Q1510.86 32.5936 1505.84 32.5936 Q1499.81 32.5936 1496.32 36.4419 Q1492.84 40.2903 1492.84 46.9338 L1492.84 72.576 L1485.34 72.576 L1485.34 27.2059 L1492.84 27.2059 L1492.84 34.2544 Q1495.51 30.163 1499.12 28.1376 Q1502.76 26.1121 1507.5 26.1121 Q1515.32 26.1121 1519.33 30.9732 Q1523.34 35.7938 1523.34 45.1919 Z" fill="#000000" fill-rule="evenodd" fill-opacity="1"></path><polyline clip-path="url(#clip362)" style="stroke:#009af9; stroke-linecap:butt; stroke-linejoin:round; stroke-width:4; stroke-opacity:1; fill:none" points="
  309.067,1383.09 329.314,1382.59 349.56,1381.72 369.807,1380.33 390.053,1379.68 410.3,1379.06 430.546,1378.85 450.793,1377.61 471.04,1376.9 491.286,1376.21 
  511.533,1375.66 531.779,1374.79 552.026,1373.15 572.272,1372.62 592.519,1371.38 612.766,1371.76 633.012,1369.31 653.259,1370.02 673.505,1366.99 693.752,1366.77 
  713.998,1366.8 734.245,1364.23 754.492,1363.99 774.738,1360.73 794.985,1360.05 815.231,1356.96 835.478,1357.42 855.724,1353.83 875.971,1353.09 896.218,1350.64 
  916.464,1347.92 936.711,1343.92 956.957,1341.82 977.204,1340.3 997.45,1337.73 1017.7,1330.49 1037.94,1327.76 1058.19,1325.32 1078.44,1320.21 1098.68,1312.56 
  1118.93,1310.61 1139.18,1305.5 1159.42,1293.18 1179.67,1288.07 1199.92,1272.84 1220.16,1270.61 1240.41,1263.68 1260.66,1240.3 1280.9,1233.09 1301.15,1217.67 
  1321.4,1201.88 1341.64,1165.01 1361.89,1153.59 1382.14,1137.86 1402.38,1098.23 1422.63,1063.71 1442.87,1048.85 1463.12,1017.12 1483.37,953.686 1503.61,948.33 
  1523.86,904.74 1544.11,863.812 1564.35,841.615 1584.6,774.898 1604.85,720.41 1625.09,707.779 1645.34,660.722 1665.59,621.342 1685.83,599.113 1706.08,584.872 
  1726.33,551.591 1746.57,556.266 1766.82,512.583 1787.07,495.463 1807.31,481.098 1827.56,461.253 1847.81,449.705 1868.05,435.619 1888.3,420.759 1908.55,404.877 
  1928.79,388.128 1949.04,376.983 1969.29,359.367 1989.53,343.888 2009.78,338.779 2030.03,325.157 2050.27,312.031 2070.52,300.514 2090.77,288.378 2111.01,272.125 
  2131.26,260.484 2151.5,245.5 2171.75,233.519 2192,223.581 2212.24,209.123 2232.49,197.049 2252.74,185.316 2272.98,172.808 2293.23,161.168 
  "></polyline>
<polyline clip-path="url(#clip362)" style="stroke:#e26f46; stroke-linecap:butt; stroke-linejoin:round; stroke-width:4; stroke-opacity:1; fill:none" points="
  309.067,1385.75 329.314,1385.43 349.56,1385.3 369.807,1385.13 390.053,1384.89 410.3,1384.71 430.546,1384.52 450.793,1384.37 471.04,1384.25 491.286,1384.06 
  511.533,1383.71 531.779,1383.69 552.026,1383.33 572.272,1383.22 592.519,1382.92 612.766,1382.83 633.012,1382.61 653.259,1382.09 673.505,1382 693.752,1381.79 
  713.998,1381.33 734.245,1380.89 754.492,1380.48 774.738,1380.22 794.985,1379.83 815.231,1379.19 835.478,1378.58 855.724,1378.4 875.971,1377.99 896.218,1376.26 
  916.464,1376.38 936.711,1374.96 956.957,1375.03 977.204,1373.73 997.45,1373.11 1017.7,1371.79 1037.94,1369.84 1058.19,1368.65 1078.44,1366.77 1098.68,1365.25 
  1118.93,1364.02 1139.18,1360.19 1159.42,1358.72 1179.67,1354.85 1199.92,1350.88 1220.16,1345.6 1240.41,1343 1260.66,1335.64 1280.9,1328.61 1301.15,1319.16 
  1321.4,1310.83 1341.64,1298.52 1361.89,1274.53 1382.14,1250.01 1402.38,1243.86 1422.63,1195.02 1442.87,1153.02 1463.12,1087.6 1483.37,1027.25 1503.61,950.185 
  1523.86,902.717 1544.11,846.109 1564.35,785.598 1584.6,724.784 1604.85,678.267 1625.09,639.798 1645.34,608.161 1665.59,589.357 1685.83,569.524 1706.08,545.876 
  1726.33,531.303 1746.57,514.12 1766.82,498.011 1787.07,481.14 1807.31,469.108 1827.56,454.475 1847.81,440.145 1868.05,426.617 1888.3,413.912 1908.55,398.561 
  1928.79,385.756 1949.04,373.15 1969.29,361.143 1989.53,346.689 2009.78,335.068 2030.03,321.847 2050.27,310.34 2070.52,296.045 2090.77,284.999 2111.01,271.629 
  2131.26,260.162 2151.5,246.664 2171.75,235.038 2192,222.739 2212.24,210.484 2232.49,199.18 2252.74,185.89 2272.98,172.328 2293.23,160.256 
  "></polyline>
<polyline clip-path="url(#clip362)" style="stroke:#3da44d; stroke-linecap:butt; stroke-linejoin:round; stroke-width:4; stroke-opacity:1; fill:none" points="
  309.067,1386.16 329.314,1386.1 349.56,1386.03 369.807,1385.98 390.053,1385.94 410.3,1385.88 430.546,1385.84 450.793,1385.78 471.04,1385.72 491.286,1385.66 
  511.533,1385.61 531.779,1385.53 552.026,1385.45 572.272,1385.43 592.519,1385.32 612.766,1385.24 633.012,1385.17 653.259,1385.1 673.505,1385 693.752,1384.85 
  713.998,1384.75 734.245,1384.71 754.492,1384.54 774.738,1384.51 794.985,1384.35 815.231,1384.11 835.478,1383.91 855.724,1383.82 875.971,1383.51 896.218,1383.34 
  916.464,1383.08 936.711,1382.81 956.957,1382.53 977.204,1382.25 997.45,1381.86 1017.7,1381.5 1037.94,1380.8 1058.19,1380.35 1078.44,1379.95 1098.68,1379.21 
  1118.93,1378.12 1139.18,1377.23 1159.42,1376.22 1179.67,1375.38 1199.92,1373.6 1220.16,1372.3 1240.41,1369.25 1260.66,1365.64 1280.9,1362.5 1301.15,1357.44 
  1321.4,1353.27 1341.64,1344.63 1361.89,1335.38 1382.14,1321.53 1402.38,1300.42 1422.63,1276.48 1442.87,1230.1 1463.12,1176.64 1483.37,1088.1 1503.61,990.311 
  1523.86,873.772 1544.11,783.071 1564.35,724.392 1584.6,677.434 1604.85,642.78 1625.09,615.91 1645.34,594.627 1665.59,575.184 1685.83,557.595 1706.08,540.717 
  1726.33,525.103 1746.57,508.68 1766.82,494.445 1787.07,478.975 1807.31,464.641 1827.56,451.445 1847.81,438.249 1868.05,424.731 1888.3,411.004 1908.55,399.001 
  1928.79,385.662 1949.04,372.688 1969.29,360.542 1989.53,347.624 2009.78,335.074 2030.03,322.506 2050.27,309.425 2070.52,296.747 2090.77,284.266 2111.01,271.686 
  2131.26,258.852 2151.5,247.188 2171.75,234.829 2192,222.781 2212.24,209.936 2232.49,197.765 2252.74,184.903 2272.98,173.229 2293.23,160.324 
  "></polyline>
<polyline clip-path="url(#clip362)" style="stroke:#c271d2; stroke-linecap:butt; stroke-linejoin:round; stroke-width:4; stroke-opacity:1; fill:none" points="
  309.067,1386.33 329.314,1386.31 349.56,1386.29 369.807,1386.28 390.053,1386.26 410.3,1386.24 430.546,1386.23 450.793,1386.21 471.04,1386.2 491.286,1386.18 
  511.533,1386.16 531.779,1386.15 552.026,1386.12 572.272,1386.1 592.519,1386.08 612.766,1386.05 633.012,1386.03 653.259,1386.01 673.505,1385.96 693.752,1385.94 
  713.998,1385.92 734.245,1385.88 754.492,1385.84 774.738,1385.79 794.985,1385.75 815.231,1385.7 835.478,1385.65 855.724,1385.6 875.971,1385.54 896.218,1385.46 
  916.464,1385.34 936.711,1385.28 956.957,1385.21 977.204,1385.1 997.45,1384.98 1017.7,1384.77 1037.94,1384.66 1058.19,1384.46 1078.44,1384.26 1098.68,1383.94 
  1118.93,1383.68 1139.18,1383.47 1159.42,1383.06 1179.67,1382.59 1199.92,1382.18 1220.16,1381.27 1240.41,1380.47 1260.66,1379.73 1280.9,1378.28 1301.15,1375.78 
  1321.4,1374.05 1341.64,1370.64 1361.89,1366.92 1382.14,1358.45 1402.38,1347.34 1422.63,1327.47 1442.87,1293.57 1463.12,1236.01 1483.37,1116.02 1503.61,947.667 
  1523.86,825.175 1544.11,740.078 1564.35,693.689 1584.6,659.257 1604.85,631.071 1625.09,608.824 1645.34,589.483 1665.59,569.903 1685.83,552.804 1706.08,537.114 
  1726.33,521.634 1746.57,507.042 1766.82,491.858 1787.07,478.136 1807.31,464.369 1827.56,450.454 1847.81,437.223 1868.05,423.829 1888.3,411.294 1908.55,398.016 
  1928.79,385.273 1949.04,372.653 1969.29,359.705 1989.53,346.929 2009.78,334.704 2030.03,321.942 2050.27,309.268 2070.52,296.722 2090.77,284.599 2111.01,272.05 
  2131.26,259.682 2151.5,247.011 2171.75,234.894 2192,222.416 2212.24,210.167 2232.49,197.849 2252.74,185.08 2272.98,172.708 2293.23,160.381 
  "></polyline>
<polyline clip-path="url(#clip362)" style="stroke:#ac8d18; stroke-linecap:butt; stroke-linejoin:round; stroke-width:4; stroke-opacity:1; fill:none" points="
  309.067,1386.39 329.314,1386.38 349.56,1386.38 369.807,1386.37 390.053,1386.37 410.3,1386.37 430.546,1386.37 450.793,1386.36 471.04,1386.36 491.286,1386.36 
  511.533,1386.35 531.779,1386.35 552.026,1386.35 572.272,1386.34 592.519,1386.34 612.766,1386.33 633.012,1386.33 653.259,1386.32 673.505,1386.31 693.752,1386.31 
  713.998,1386.3 734.245,1386.29 754.492,1386.28 774.738,1386.28 794.985,1386.27 815.231,1386.26 835.478,1386.24 855.724,1386.24 875.971,1386.22 896.218,1386.21 
  916.464,1386.2 936.711,1386.17 956.957,1386.14 977.204,1386.12 997.45,1386.1 1017.7,1386.08 1037.94,1386.03 1058.19,1386 1078.44,1385.95 1098.68,1385.91 
  1118.93,1385.85 1139.18,1385.76 1159.42,1385.68 1179.67,1385.58 1199.92,1385.47 1220.16,1385.31 1240.41,1385.09 1260.66,1384.86 1280.9,1384.57 1301.15,1384.04 
  1321.4,1383.38 1341.64,1382.61 1361.89,1381.23 1382.14,1379.16 1402.38,1375.82 1422.63,1368.6 1442.87,1355.8 1463.12,1315.33 1483.37,1173.38 1503.61,910.295 
  1523.86,769.125 1544.11,715.973 1564.35,678.29 1584.6,649.581 1604.85,625.479 1625.09,604.181 1645.34,585.468 1665.59,567.671 1685.83,551.46 1706.08,535.337 
  1726.33,520.053 1746.57,505.44 1766.82,491.196 1787.07,477.502 1807.31,463.687 1827.56,450.254 1847.81,437 1868.05,423.815 1888.3,410.881 1908.55,397.749 
  1928.79,385.032 1949.04,372.318 1969.29,359.659 1989.53,347.043 2009.78,334.385 2030.03,321.87 2050.27,309.42 2070.52,296.976 2090.77,284.491 2111.01,272.041 
  2131.26,259.448 2151.5,247.113 2171.75,234.825 2192,222.293 2212.24,209.903 2232.49,197.636 2252.74,185.262 2272.98,172.797 2293.23,160.444 
  "></polyline>
<polyline clip-path="url(#clip362)" style="stroke:#00a9ad; stroke-linecap:butt; stroke-linejoin:round; stroke-width:4; stroke-opacity:1; fill:none" points="
  309.067,1386.4 329.314,1386.39 349.56,1386.39 369.807,1386.39 390.053,1386.39 410.3,1386.39 430.546,1386.39 450.793,1386.39 471.04,1386.39 491.286,1386.39 
  511.533,1386.39 531.779,1386.39 552.026,1386.38 572.272,1386.38 592.519,1386.38 612.766,1386.38 633.012,1386.38 653.259,1386.38 673.505,1386.38 693.752,1386.37 
  713.998,1386.37 734.245,1386.37 754.492,1386.37 774.738,1386.36 794.985,1386.36 815.231,1386.36 835.478,1386.36 855.724,1386.35 875.971,1386.35 896.218,1386.34 
  916.464,1386.34 936.711,1386.33 956.957,1386.33 977.204,1386.32 997.45,1386.31 1017.7,1386.3 1037.94,1386.29 1058.19,1386.28 1078.44,1386.27 1098.68,1386.25 
  1118.93,1386.24 1139.18,1386.21 1159.42,1386.19 1179.67,1386.15 1199.92,1386.12 1220.16,1386.07 1240.41,1386.02 1260.66,1385.92 1280.9,1385.83 1301.15,1385.68 
  1321.4,1385.52 1341.64,1385.19 1361.89,1384.78 1382.14,1384.08 1402.38,1382.87 1422.63,1380.5 1442.87,1374.1 1463.12,1354.89 1483.37,1222.84 1503.61,862.701 
  1523.86,757.154 1544.11,707.905 1564.35,674.129 1584.6,646.569 1604.85,623.309 1625.09,602.913 1645.34,584.003 1665.59,566.677 1685.83,550.465 1706.08,534.698 
  1726.33,519.647 1746.57,505.21 1766.82,490.919 1787.07,477.125 1807.31,463.378 1827.56,450.095 1847.81,436.904 1868.05,423.593 1888.3,410.679 1908.55,397.837 
  1928.79,385.017 1949.04,372.301 1969.29,359.553 1989.53,346.972 2009.78,334.445 2030.03,321.849 2050.27,309.438 2070.52,296.85 2090.77,284.462 2111.01,272.002 
  2131.26,259.53 2151.5,247.169 2171.75,234.777 2192,222.345 2212.24,209.952 2232.49,197.599 2252.74,185.208 2272.98,172.817 2293.23,160.41 
  "></polyline>
<path clip-path="url(#clip360)" d="
M319.649 529.676 L830.051 529.676 L830.051 166.796 L319.649 166.796  Z
  " fill="#ffffff" fill-rule="evenodd" fill-opacity="1"></path>
<polyline clip-path="url(#clip360)" style="stroke:#000000; stroke-linecap:butt; stroke-linejoin:round; stroke-width:4; stroke-opacity:1; fill:none" points="
  319.649,529.676 830.051,529.676 830.051,166.796 319.649,166.796 319.649,529.676 
  "></polyline>
<polyline clip-path="url(#clip360)" style="stroke:#009af9; stroke-linecap:butt; stroke-linejoin:round; stroke-width:4; stroke-opacity:1; fill:none" points="
  343.018,218.636 483.232,218.636 
  "></polyline>
<path clip-path="url(#clip360)" d="M525.027 210.754 L525.027 214.782 Q523.222 213.856 521.277 213.393 Q519.333 212.93 517.25 212.93 Q514.078 212.93 512.481 213.902 Q510.907 214.874 510.907 216.819 Q510.907 218.3 512.041 219.157 Q513.176 219.99 516.601 220.754 L518.06 221.078 Q522.597 222.05 524.495 223.832 Q526.416 225.592 526.416 228.763 Q526.416 232.374 523.546 234.481 Q520.699 236.587 515.699 236.587 Q513.615 236.587 511.347 236.17 Q509.101 235.777 506.602 234.967 L506.602 230.569 Q508.963 231.795 511.254 232.42 Q513.546 233.022 515.791 233.022 Q518.801 233.022 520.421 232.004 Q522.041 230.962 522.041 229.087 Q522.041 227.351 520.861 226.425 Q519.703 225.499 515.745 224.643 L514.264 224.295 Q510.305 223.462 508.546 221.749 Q506.787 220.013 506.787 217.004 Q506.787 213.346 509.379 211.356 Q511.972 209.365 516.74 209.365 Q519.101 209.365 521.185 209.712 Q523.268 210.059 525.027 210.754 Z" fill="#000000" fill-rule="evenodd" fill-opacity="1"></path><path clip-path="url(#clip360)" d="M533.199 209.99 L537.458 209.99 L537.458 235.916 L533.199 235.916 L533.199 209.99 M533.199 199.897 L537.458 199.897 L537.458 205.291 L533.199 205.291 L533.199 199.897 Z" fill="#000000" fill-rule="evenodd" fill-opacity="1"></path><path clip-path="url(#clip360)" d="M544.518 209.99 L564.749 209.99 L564.749 213.879 L548.731 232.513 L564.749 232.513 L564.749 235.916 L543.939 235.916 L543.939 232.027 L559.958 213.393 L544.518 213.393 L544.518 209.99 Z" fill="#000000" fill-rule="evenodd" fill-opacity="1"></path><path clip-path="url(#clip360)" d="M593.43 221.888 L593.43 223.971 L573.847 223.971 Q574.124 228.369 576.485 230.684 Q578.87 232.976 583.106 232.976 Q585.559 232.976 587.851 232.374 Q590.166 231.772 592.434 230.569 L592.434 234.596 Q590.143 235.568 587.735 236.078 Q585.328 236.587 582.851 236.587 Q576.647 236.587 573.013 232.976 Q569.402 229.365 569.402 223.207 Q569.402 216.842 572.828 213.115 Q576.277 209.365 582.11 209.365 Q587.342 209.365 590.374 212.745 Q593.43 216.101 593.43 221.888 M589.171 220.638 Q589.124 217.143 587.203 215.059 Q585.305 212.976 582.157 212.976 Q578.592 212.976 576.439 214.99 Q574.309 217.004 573.985 220.661 L589.171 220.638 Z" fill="#000000" fill-rule="evenodd" fill-opacity="1"></path><path clip-path="url(#clip360)" d="M616.045 214.388 L645.721 214.388 L645.721 218.277 L616.045 218.277 L616.045 214.388 M616.045 223.832 L645.721 223.832 L645.721 227.768 L616.045 227.768 L616.045 223.832 Z" fill="#000000" fill-rule="evenodd" fill-opacity="1"></path><path clip-path="url(#clip360)" d="M674.911 231.981 L691.23 231.981 L691.23 235.916 L669.286 235.916 L669.286 231.981 Q671.948 229.226 676.531 224.596 Q681.138 219.944 682.318 218.601 Q684.564 216.078 685.443 214.342 Q686.346 212.583 686.346 210.893 Q686.346 208.138 684.401 206.402 Q682.48 204.666 679.378 204.666 Q677.179 204.666 674.726 205.43 Q672.295 206.194 669.517 207.745 L669.517 203.022 Q672.341 201.888 674.795 201.309 Q677.249 200.731 679.286 200.731 Q684.656 200.731 687.851 203.416 Q691.045 206.101 691.045 210.592 Q691.045 212.721 690.235 214.643 Q689.448 216.541 687.341 219.133 Q686.763 219.805 683.661 223.022 Q680.559 226.217 674.911 231.981 Z" fill="#000000" fill-rule="evenodd" fill-opacity="1"></path><path clip-path="url(#clip360)" d="M711.045 204.434 Q707.434 204.434 705.605 207.999 Q703.8 211.541 703.8 218.67 Q703.8 225.777 705.605 229.342 Q707.434 232.883 711.045 232.883 Q714.679 232.883 716.485 229.342 Q718.313 225.777 718.313 218.67 Q718.313 211.541 716.485 207.999 Q714.679 204.434 711.045 204.434 M711.045 200.731 Q716.855 200.731 719.911 205.337 Q722.989 209.92 722.989 218.67 Q722.989 227.397 719.911 232.004 Q716.855 236.587 711.045 236.587 Q705.235 236.587 702.156 232.004 Q699.1 227.397 699.1 218.67 Q699.1 209.92 702.156 205.337 Q705.235 200.731 711.045 200.731 Z" fill="#000000" fill-rule="evenodd" fill-opacity="1"></path><polyline clip-path="url(#clip360)" style="stroke:#e26f46; stroke-linecap:butt; stroke-linejoin:round; stroke-width:4; stroke-opacity:1; fill:none" points="
  343.018,270.476 483.232,270.476 
  "></polyline>
<path clip-path="url(#clip360)" d="M525.027 262.594 L525.027 266.622 Q523.222 265.696 521.277 265.233 Q519.333 264.77 517.25 264.77 Q514.078 264.77 512.481 265.742 Q510.907 266.714 510.907 268.659 Q510.907 270.14 512.041 270.997 Q513.176 271.83 516.601 272.594 L518.06 272.918 Q522.597 273.89 524.495 275.672 Q526.416 277.432 526.416 280.603 Q526.416 284.214 523.546 286.321 Q520.699 288.427 515.699 288.427 Q513.615 288.427 511.347 288.01 Q509.101 287.617 506.602 286.807 L506.602 282.409 Q508.963 283.635 511.254 284.26 Q513.546 284.862 515.791 284.862 Q518.801 284.862 520.421 283.844 Q522.041 282.802 522.041 280.927 Q522.041 279.191 520.861 278.265 Q519.703 277.339 515.745 276.483 L514.264 276.135 Q510.305 275.302 508.546 273.589 Q506.787 271.853 506.787 268.844 Q506.787 265.186 509.379 263.196 Q511.972 261.205 516.74 261.205 Q519.101 261.205 521.185 261.552 Q523.268 261.899 525.027 262.594 Z" fill="#000000" fill-rule="evenodd" fill-opacity="1"></path><path clip-path="url(#clip360)" d="M533.199 261.83 L537.458 261.83 L537.458 287.756 L533.199 287.756 L533.199 261.83 M533.199 251.737 L537.458 251.737 L537.458 257.131 L533.199 257.131 L533.199 251.737 Z" fill="#000000" fill-rule="evenodd" fill-opacity="1"></path><path clip-path="url(#clip360)" d="M544.518 261.83 L564.749 261.83 L564.749 265.719 L548.731 284.353 L564.749 284.353 L564.749 287.756 L543.939 287.756 L543.939 283.867 L559.958 265.233 L544.518 265.233 L544.518 261.83 Z" fill="#000000" fill-rule="evenodd" fill-opacity="1"></path><path clip-path="url(#clip360)" d="M593.43 273.728 L593.43 275.811 L573.847 275.811 Q574.124 280.209 576.485 282.524 Q578.87 284.816 583.106 284.816 Q585.559 284.816 587.851 284.214 Q590.166 283.612 592.434 282.409 L592.434 286.436 Q590.143 287.408 587.735 287.918 Q585.328 288.427 582.851 288.427 Q576.647 288.427 573.013 284.816 Q569.402 281.205 569.402 275.047 Q569.402 268.682 572.828 264.955 Q576.277 261.205 582.11 261.205 Q587.342 261.205 590.374 264.585 Q593.43 267.941 593.43 273.728 M589.171 272.478 Q589.124 268.983 587.203 266.899 Q585.305 264.816 582.157 264.816 Q578.592 264.816 576.439 266.83 Q574.309 268.844 573.985 272.501 L589.171 272.478 Z" fill="#000000" fill-rule="evenodd" fill-opacity="1"></path><path clip-path="url(#clip360)" d="M616.045 266.228 L645.721 266.228 L645.721 270.117 L616.045 270.117 L616.045 266.228 M616.045 275.672 L645.721 275.672 L645.721 279.608 L616.045 279.608 L616.045 275.672 Z" fill="#000000" fill-rule="evenodd" fill-opacity="1"></path><path clip-path="url(#clip360)" d="M670.929 253.196 L689.286 253.196 L689.286 257.131 L675.212 257.131 L675.212 265.603 Q676.23 265.256 677.249 265.094 Q678.267 264.909 679.286 264.909 Q685.073 264.909 688.452 268.08 Q691.832 271.251 691.832 276.668 Q691.832 282.246 688.36 285.348 Q684.888 288.427 678.568 288.427 Q676.392 288.427 674.124 288.057 Q671.878 287.686 669.471 286.946 L669.471 282.246 Q671.554 283.381 673.777 283.936 Q675.999 284.492 678.476 284.492 Q682.48 284.492 684.818 282.385 Q687.156 280.279 687.156 276.668 Q687.156 273.057 684.818 270.95 Q682.48 268.844 678.476 268.844 Q676.601 268.844 674.726 269.26 Q672.874 269.677 670.929 270.557 L670.929 253.196 Z" fill="#000000" fill-rule="evenodd" fill-opacity="1"></path><path clip-path="url(#clip360)" d="M711.045 256.274 Q707.434 256.274 705.605 259.839 Q703.8 263.381 703.8 270.51 Q703.8 277.617 705.605 281.182 Q707.434 284.723 711.045 284.723 Q714.679 284.723 716.485 281.182 Q718.313 277.617 718.313 270.51 Q718.313 263.381 716.485 259.839 Q714.679 256.274 711.045 256.274 M711.045 252.571 Q716.855 252.571 719.911 257.177 Q722.989 261.76 722.989 270.51 Q722.989 279.237 719.911 283.844 Q716.855 288.427 711.045 288.427 Q705.235 288.427 702.156 283.844 Q699.1 279.237 699.1 270.51 Q699.1 261.76 702.156 257.177 Q705.235 252.571 711.045 252.571 Z" fill="#000000" fill-rule="evenodd" fill-opacity="1"></path><polyline clip-path="url(#clip360)" style="stroke:#3da44d; stroke-linecap:butt; stroke-linejoin:round; stroke-width:4; stroke-opacity:1; fill:none" points="
  343.018,322.316 483.232,322.316 
  "></polyline>
<path clip-path="url(#clip360)" d="M525.027 314.434 L525.027 318.462 Q523.222 317.536 521.277 317.073 Q519.333 316.61 517.25 316.61 Q514.078 316.61 512.481 317.582 Q510.907 318.554 510.907 320.499 Q510.907 321.98 512.041 322.837 Q513.176 323.67 516.601 324.434 L518.06 324.758 Q522.597 325.73 524.495 327.512 Q526.416 329.272 526.416 332.443 Q526.416 336.054 523.546 338.161 Q520.699 340.267 515.699 340.267 Q513.615 340.267 511.347 339.85 Q509.101 339.457 506.602 338.647 L506.602 334.249 Q508.963 335.475 511.254 336.1 Q513.546 336.702 515.791 336.702 Q518.801 336.702 520.421 335.684 Q522.041 334.642 522.041 332.767 Q522.041 331.031 520.861 330.105 Q519.703 329.179 515.745 328.323 L514.264 327.975 Q510.305 327.142 508.546 325.429 Q506.787 323.693 506.787 320.684 Q506.787 317.026 509.379 315.036 Q511.972 313.045 516.74 313.045 Q519.101 313.045 521.185 313.392 Q523.268 313.739 525.027 314.434 Z" fill="#000000" fill-rule="evenodd" fill-opacity="1"></path><path clip-path="url(#clip360)" d="M533.199 313.67 L537.458 313.67 L537.458 339.596 L533.199 339.596 L533.199 313.67 M533.199 303.577 L537.458 303.577 L537.458 308.971 L533.199 308.971 L533.199 303.577 Z" fill="#000000" fill-rule="evenodd" fill-opacity="1"></path><path clip-path="url(#clip360)" d="M544.518 313.67 L564.749 313.67 L564.749 317.559 L548.731 336.193 L564.749 336.193 L564.749 339.596 L543.939 339.596 L543.939 335.707 L559.958 317.073 L544.518 317.073 L544.518 313.67 Z" fill="#000000" fill-rule="evenodd" fill-opacity="1"></path><path clip-path="url(#clip360)" d="M593.43 325.568 L593.43 327.651 L573.847 327.651 Q574.124 332.049 576.485 334.364 Q578.87 336.656 583.106 336.656 Q585.559 336.656 587.851 336.054 Q590.166 335.452 592.434 334.249 L592.434 338.276 Q590.143 339.248 587.735 339.758 Q585.328 340.267 582.851 340.267 Q576.647 340.267 573.013 336.656 Q569.402 333.045 569.402 326.887 Q569.402 320.522 572.828 316.795 Q576.277 313.045 582.11 313.045 Q587.342 313.045 590.374 316.425 Q593.43 319.781 593.43 325.568 M589.171 324.318 Q589.124 320.823 587.203 318.739 Q585.305 316.656 582.157 316.656 Q578.592 316.656 576.439 318.67 Q574.309 320.684 573.985 324.341 L589.171 324.318 Z" fill="#000000" fill-rule="evenodd" fill-opacity="1"></path><path clip-path="url(#clip360)" d="M616.045 318.068 L645.721 318.068 L645.721 321.957 L616.045 321.957 L616.045 318.068 M616.045 327.512 L645.721 327.512 L645.721 331.448 L616.045 331.448 L616.045 327.512 Z" fill="#000000" fill-rule="evenodd" fill-opacity="1"></path><path clip-path="url(#clip360)" d="M671.693 335.661 L679.332 335.661 L679.332 309.295 L671.022 310.962 L671.022 306.702 L679.286 305.036 L683.962 305.036 L683.962 335.661 L691.601 335.661 L691.601 339.596 L671.693 339.596 L671.693 335.661 Z" fill="#000000" fill-rule="evenodd" fill-opacity="1"></path><path clip-path="url(#clip360)" d="M711.045 308.114 Q707.434 308.114 705.605 311.679 Q703.8 315.221 703.8 322.35 Q703.8 329.457 705.605 333.022 Q707.434 336.563 711.045 336.563 Q714.679 336.563 716.485 333.022 Q718.313 329.457 718.313 322.35 Q718.313 315.221 716.485 311.679 Q714.679 308.114 711.045 308.114 M711.045 304.411 Q716.855 304.411 719.911 309.017 Q722.989 313.6 722.989 322.35 Q722.989 331.077 719.911 335.684 Q716.855 340.267 711.045 340.267 Q705.235 340.267 702.156 335.684 Q699.1 331.077 699.1 322.35 Q699.1 313.6 702.156 309.017 Q705.235 304.411 711.045 304.411 Z" fill="#000000" fill-rule="evenodd" fill-opacity="1"></path><path clip-path="url(#clip360)" d="M741.207 308.114 Q737.596 308.114 735.767 311.679 Q733.961 315.221 733.961 322.35 Q733.961 329.457 735.767 333.022 Q737.596 336.563 741.207 336.563 Q744.841 336.563 746.647 333.022 Q748.475 329.457 748.475 322.35 Q748.475 315.221 746.647 311.679 Q744.841 308.114 741.207 308.114 M741.207 304.411 Q747.017 304.411 750.072 309.017 Q753.151 313.6 753.151 322.35 Q753.151 331.077 750.072 335.684 Q747.017 340.267 741.207 340.267 Q735.397 340.267 732.318 335.684 Q729.262 331.077 729.262 322.35 Q729.262 313.6 732.318 309.017 Q735.397 304.411 741.207 304.411 Z" fill="#000000" fill-rule="evenodd" fill-opacity="1"></path><polyline clip-path="url(#clip360)" style="stroke:#c271d2; stroke-linecap:butt; stroke-linejoin:round; stroke-width:4; stroke-opacity:1; fill:none" points="
  343.018,374.156 483.232,374.156 
  "></polyline>
<path clip-path="url(#clip360)" d="M525.027 366.274 L525.027 370.302 Q523.222 369.376 521.277 368.913 Q519.333 368.45 517.25 368.45 Q514.078 368.45 512.481 369.422 Q510.907 370.394 510.907 372.339 Q510.907 373.82 512.041 374.677 Q513.176 375.51 516.601 376.274 L518.06 376.598 Q522.597 377.57 524.495 379.352 Q526.416 381.112 526.416 384.283 Q526.416 387.894 523.546 390.001 Q520.699 392.107 515.699 392.107 Q513.615 392.107 511.347 391.69 Q509.101 391.297 506.602 390.487 L506.602 386.089 Q508.963 387.315 511.254 387.94 Q513.546 388.542 515.791 388.542 Q518.801 388.542 520.421 387.524 Q522.041 386.482 522.041 384.607 Q522.041 382.871 520.861 381.945 Q519.703 381.019 515.745 380.163 L514.264 379.815 Q510.305 378.982 508.546 377.269 Q506.787 375.533 506.787 372.524 Q506.787 368.866 509.379 366.876 Q511.972 364.885 516.74 364.885 Q519.101 364.885 521.185 365.232 Q523.268 365.579 525.027 366.274 Z" fill="#000000" fill-rule="evenodd" fill-opacity="1"></path><path clip-path="url(#clip360)" d="M533.199 365.51 L537.458 365.51 L537.458 391.436 L533.199 391.436 L533.199 365.51 M533.199 355.417 L537.458 355.417 L537.458 360.811 L533.199 360.811 L533.199 355.417 Z" fill="#000000" fill-rule="evenodd" fill-opacity="1"></path><path clip-path="url(#clip360)" d="M544.518 365.51 L564.749 365.51 L564.749 369.399 L548.731 388.033 L564.749 388.033 L564.749 391.436 L543.939 391.436 L543.939 387.547 L559.958 368.913 L544.518 368.913 L544.518 365.51 Z" fill="#000000" fill-rule="evenodd" fill-opacity="1"></path><path clip-path="url(#clip360)" d="M593.43 377.408 L593.43 379.491 L573.847 379.491 Q574.124 383.889 576.485 386.204 Q578.87 388.496 583.106 388.496 Q585.559 388.496 587.851 387.894 Q590.166 387.292 592.434 386.089 L592.434 390.116 Q590.143 391.088 587.735 391.598 Q585.328 392.107 582.851 392.107 Q576.647 392.107 573.013 388.496 Q569.402 384.885 569.402 378.727 Q569.402 372.362 572.828 368.635 Q576.277 364.885 582.11 364.885 Q587.342 364.885 590.374 368.265 Q593.43 371.621 593.43 377.408 M589.171 376.158 Q589.124 372.663 587.203 370.579 Q585.305 368.496 582.157 368.496 Q578.592 368.496 576.439 370.51 Q574.309 372.524 573.985 376.181 L589.171 376.158 Z" fill="#000000" fill-rule="evenodd" fill-opacity="1"></path><path clip-path="url(#clip360)" d="M616.045 369.908 L645.721 369.908 L645.721 373.797 L616.045 373.797 L616.045 369.908 M616.045 379.352 L645.721 379.352 L645.721 383.288 L616.045 383.288 L616.045 379.352 Z" fill="#000000" fill-rule="evenodd" fill-opacity="1"></path><path clip-path="url(#clip360)" d="M674.911 387.501 L691.23 387.501 L691.23 391.436 L669.286 391.436 L669.286 387.501 Q671.948 384.746 676.531 380.116 Q681.138 375.464 682.318 374.121 Q684.564 371.598 685.443 369.862 Q686.346 368.103 686.346 366.413 Q686.346 363.658 684.401 361.922 Q682.48 360.186 679.378 360.186 Q677.179 360.186 674.726 360.95 Q672.295 361.714 669.517 363.265 L669.517 358.542 Q672.341 357.408 674.795 356.829 Q677.249 356.251 679.286 356.251 Q684.656 356.251 687.851 358.936 Q691.045 361.621 691.045 366.112 Q691.045 368.241 690.235 370.163 Q689.448 372.061 687.341 374.653 Q686.763 375.325 683.661 378.542 Q680.559 381.737 674.911 387.501 Z" fill="#000000" fill-rule="evenodd" fill-opacity="1"></path><path clip-path="url(#clip360)" d="M711.045 359.954 Q707.434 359.954 705.605 363.519 Q703.8 367.061 703.8 374.19 Q703.8 381.297 705.605 384.862 Q707.434 388.403 711.045 388.403 Q714.679 388.403 716.485 384.862 Q718.313 381.297 718.313 374.19 Q718.313 367.061 716.485 363.519 Q714.679 359.954 711.045 359.954 M711.045 356.251 Q716.855 356.251 719.911 360.857 Q722.989 365.44 722.989 374.19 Q722.989 382.917 719.911 387.524 Q716.855 392.107 711.045 392.107 Q705.235 392.107 702.156 387.524 Q699.1 382.917 699.1 374.19 Q699.1 365.44 702.156 360.857 Q705.235 356.251 711.045 356.251 Z" fill="#000000" fill-rule="evenodd" fill-opacity="1"></path><path clip-path="url(#clip360)" d="M741.207 359.954 Q737.596 359.954 735.767 363.519 Q733.961 367.061 733.961 374.19 Q733.961 381.297 735.767 384.862 Q737.596 388.403 741.207 388.403 Q744.841 388.403 746.647 384.862 Q748.475 381.297 748.475 374.19 Q748.475 367.061 746.647 363.519 Q744.841 359.954 741.207 359.954 M741.207 356.251 Q747.017 356.251 750.072 360.857 Q753.151 365.44 753.151 374.19 Q753.151 382.917 750.072 387.524 Q747.017 392.107 741.207 392.107 Q735.397 392.107 732.318 387.524 Q729.262 382.917 729.262 374.19 Q729.262 365.44 732.318 360.857 Q735.397 356.251 741.207 356.251 Z" fill="#000000" fill-rule="evenodd" fill-opacity="1"></path><polyline clip-path="url(#clip360)" style="stroke:#ac8d18; stroke-linecap:butt; stroke-linejoin:round; stroke-width:4; stroke-opacity:1; fill:none" points="
  343.018,425.996 483.232,425.996 
  "></polyline>
<path clip-path="url(#clip360)" d="M525.027 418.114 L525.027 422.142 Q523.222 421.216 521.277 420.753 Q519.333 420.29 517.25 420.29 Q514.078 420.29 512.481 421.262 Q510.907 422.234 510.907 424.179 Q510.907 425.66 512.041 426.517 Q513.176 427.35 516.601 428.114 L518.06 428.438 Q522.597 429.41 524.495 431.192 Q526.416 432.952 526.416 436.123 Q526.416 439.734 523.546 441.841 Q520.699 443.947 515.699 443.947 Q513.615 443.947 511.347 443.53 Q509.101 443.137 506.602 442.327 L506.602 437.929 Q508.963 439.155 511.254 439.78 Q513.546 440.382 515.791 440.382 Q518.801 440.382 520.421 439.364 Q522.041 438.322 522.041 436.447 Q522.041 434.711 520.861 433.785 Q519.703 432.859 515.745 432.003 L514.264 431.655 Q510.305 430.822 508.546 429.109 Q506.787 427.373 506.787 424.364 Q506.787 420.706 509.379 418.716 Q511.972 416.725 516.74 416.725 Q519.101 416.725 521.185 417.072 Q523.268 417.419 525.027 418.114 Z" fill="#000000" fill-rule="evenodd" fill-opacity="1"></path><path clip-path="url(#clip360)" d="M533.199 417.35 L537.458 417.35 L537.458 443.276 L533.199 443.276 L533.199 417.35 M533.199 407.257 L537.458 407.257 L537.458 412.651 L533.199 412.651 L533.199 407.257 Z" fill="#000000" fill-rule="evenodd" fill-opacity="1"></path><path clip-path="url(#clip360)" d="M544.518 417.35 L564.749 417.35 L564.749 421.239 L548.731 439.873 L564.749 439.873 L564.749 443.276 L543.939 443.276 L543.939 439.387 L559.958 420.753 L544.518 420.753 L544.518 417.35 Z" fill="#000000" fill-rule="evenodd" fill-opacity="1"></path><path clip-path="url(#clip360)" d="M593.43 429.248 L593.43 431.331 L573.847 431.331 Q574.124 435.729 576.485 438.044 Q578.87 440.336 583.106 440.336 Q585.559 440.336 587.851 439.734 Q590.166 439.132 592.434 437.929 L592.434 441.956 Q590.143 442.928 587.735 443.438 Q585.328 443.947 582.851 443.947 Q576.647 443.947 573.013 440.336 Q569.402 436.725 569.402 430.567 Q569.402 424.202 572.828 420.475 Q576.277 416.725 582.11 416.725 Q587.342 416.725 590.374 420.105 Q593.43 423.461 593.43 429.248 M589.171 427.998 Q589.124 424.503 587.203 422.419 Q585.305 420.336 582.157 420.336 Q578.592 420.336 576.439 422.35 Q574.309 424.364 573.985 428.021 L589.171 427.998 Z" fill="#000000" fill-rule="evenodd" fill-opacity="1"></path><path clip-path="url(#clip360)" d="M616.045 421.748 L645.721 421.748 L645.721 425.637 L616.045 425.637 L616.045 421.748 M616.045 431.192 L645.721 431.192 L645.721 435.128 L616.045 435.128 L616.045 431.192 Z" fill="#000000" fill-rule="evenodd" fill-opacity="1"></path><path clip-path="url(#clip360)" d="M670.929 408.716 L689.286 408.716 L689.286 412.651 L675.212 412.651 L675.212 421.123 Q676.23 420.776 677.249 420.614 Q678.267 420.429 679.286 420.429 Q685.073 420.429 688.452 423.6 Q691.832 426.771 691.832 432.188 Q691.832 437.766 688.36 440.868 Q684.888 443.947 678.568 443.947 Q676.392 443.947 674.124 443.577 Q671.878 443.206 669.471 442.466 L669.471 437.766 Q671.554 438.901 673.777 439.456 Q675.999 440.012 678.476 440.012 Q682.48 440.012 684.818 437.905 Q687.156 435.799 687.156 432.188 Q687.156 428.577 684.818 426.47 Q682.48 424.364 678.476 424.364 Q676.601 424.364 674.726 424.78 Q672.874 425.197 670.929 426.077 L670.929 408.716 Z" fill="#000000" fill-rule="evenodd" fill-opacity="1"></path><path clip-path="url(#clip360)" d="M711.045 411.794 Q707.434 411.794 705.605 415.359 Q703.8 418.901 703.8 426.03 Q703.8 433.137 705.605 436.702 Q707.434 440.243 711.045 440.243 Q714.679 440.243 716.485 436.702 Q718.313 433.137 718.313 426.03 Q718.313 418.901 716.485 415.359 Q714.679 411.794 711.045 411.794 M711.045 408.091 Q716.855 408.091 719.911 412.697 Q722.989 417.28 722.989 426.03 Q722.989 434.757 719.911 439.364 Q716.855 443.947 711.045 443.947 Q705.235 443.947 702.156 439.364 Q699.1 434.757 699.1 426.03 Q699.1 417.28 702.156 412.697 Q705.235 408.091 711.045 408.091 Z" fill="#000000" fill-rule="evenodd" fill-opacity="1"></path><path clip-path="url(#clip360)" d="M741.207 411.794 Q737.596 411.794 735.767 415.359 Q733.961 418.901 733.961 426.03 Q733.961 433.137 735.767 436.702 Q737.596 440.243 741.207 440.243 Q744.841 440.243 746.647 436.702 Q748.475 433.137 748.475 426.03 Q748.475 418.901 746.647 415.359 Q744.841 411.794 741.207 411.794 M741.207 408.091 Q747.017 408.091 750.072 412.697 Q753.151 417.28 753.151 426.03 Q753.151 434.757 750.072 439.364 Q747.017 443.947 741.207 443.947 Q735.397 443.947 732.318 439.364 Q729.262 434.757 729.262 426.03 Q729.262 417.28 732.318 412.697 Q735.397 408.091 741.207 408.091 Z" fill="#000000" fill-rule="evenodd" fill-opacity="1"></path><polyline clip-path="url(#clip360)" style="stroke:#00a9ad; stroke-linecap:butt; stroke-linejoin:round; stroke-width:4; stroke-opacity:1; fill:none" points="
  343.018,477.836 483.232,477.836 
  "></polyline>
<path clip-path="url(#clip360)" d="M525.027 469.954 L525.027 473.982 Q523.222 473.056 521.277 472.593 Q519.333 472.13 517.25 472.13 Q514.078 472.13 512.481 473.102 Q510.907 474.074 510.907 476.019 Q510.907 477.5 512.041 478.357 Q513.176 479.19 516.601 479.954 L518.06 480.278 Q522.597 481.25 524.495 483.032 Q526.416 484.792 526.416 487.963 Q526.416 491.574 523.546 493.681 Q520.699 495.787 515.699 495.787 Q513.615 495.787 511.347 495.37 Q509.101 494.977 506.602 494.167 L506.602 489.769 Q508.963 490.995 511.254 491.62 Q513.546 492.222 515.791 492.222 Q518.801 492.222 520.421 491.204 Q522.041 490.162 522.041 488.287 Q522.041 486.551 520.861 485.625 Q519.703 484.699 515.745 483.843 L514.264 483.495 Q510.305 482.662 508.546 480.949 Q506.787 479.213 506.787 476.204 Q506.787 472.546 509.379 470.556 Q511.972 468.565 516.74 468.565 Q519.101 468.565 521.185 468.912 Q523.268 469.259 525.027 469.954 Z" fill="#000000" fill-rule="evenodd" fill-opacity="1"></path><path clip-path="url(#clip360)" d="M533.199 469.19 L537.458 469.19 L537.458 495.116 L533.199 495.116 L533.199 469.19 M533.199 459.097 L537.458 459.097 L537.458 464.491 L533.199 464.491 L533.199 459.097 Z" fill="#000000" fill-rule="evenodd" fill-opacity="1"></path><path clip-path="url(#clip360)" d="M544.518 469.19 L564.749 469.19 L564.749 473.079 L548.731 491.713 L564.749 491.713 L564.749 495.116 L543.939 495.116 L543.939 491.227 L559.958 472.593 L544.518 472.593 L544.518 469.19 Z" fill="#000000" fill-rule="evenodd" fill-opacity="1"></path><path clip-path="url(#clip360)" d="M593.43 481.088 L593.43 483.171 L573.847 483.171 Q574.124 487.569 576.485 489.884 Q578.87 492.176 583.106 492.176 Q585.559 492.176 587.851 491.574 Q590.166 490.972 592.434 489.769 L592.434 493.796 Q590.143 494.768 587.735 495.278 Q585.328 495.787 582.851 495.787 Q576.647 495.787 573.013 492.176 Q569.402 488.565 569.402 482.407 Q569.402 476.042 572.828 472.315 Q576.277 468.565 582.11 468.565 Q587.342 468.565 590.374 471.945 Q593.43 475.301 593.43 481.088 M589.171 479.838 Q589.124 476.343 587.203 474.259 Q585.305 472.176 582.157 472.176 Q578.592 472.176 576.439 474.19 Q574.309 476.204 573.985 479.861 L589.171 479.838 Z" fill="#000000" fill-rule="evenodd" fill-opacity="1"></path><path clip-path="url(#clip360)" d="M616.045 473.588 L645.721 473.588 L645.721 477.477 L616.045 477.477 L616.045 473.588 M616.045 483.032 L645.721 483.032 L645.721 486.968 L616.045 486.968 L616.045 483.032 Z" fill="#000000" fill-rule="evenodd" fill-opacity="1"></path><path clip-path="url(#clip360)" d="M671.693 491.181 L679.332 491.181 L679.332 464.815 L671.022 466.482 L671.022 462.222 L679.286 460.556 L683.962 460.556 L683.962 491.181 L691.601 491.181 L691.601 495.116 L671.693 495.116 L671.693 491.181 Z" fill="#000000" fill-rule="evenodd" fill-opacity="1"></path><path clip-path="url(#clip360)" d="M711.045 463.634 Q707.434 463.634 705.605 467.199 Q703.8 470.741 703.8 477.87 Q703.8 484.977 705.605 488.542 Q707.434 492.083 711.045 492.083 Q714.679 492.083 716.485 488.542 Q718.313 484.977 718.313 477.87 Q718.313 470.741 716.485 467.199 Q714.679 463.634 711.045 463.634 M711.045 459.931 Q716.855 459.931 719.911 464.537 Q722.989 469.12 722.989 477.87 Q722.989 486.597 719.911 491.204 Q716.855 495.787 711.045 495.787 Q705.235 495.787 702.156 491.204 Q699.1 486.597 699.1 477.87 Q699.1 469.12 702.156 464.537 Q705.235 459.931 711.045 459.931 Z" fill="#000000" fill-rule="evenodd" fill-opacity="1"></path><path clip-path="url(#clip360)" d="M741.207 463.634 Q737.596 463.634 735.767 467.199 Q733.961 470.741 733.961 477.87 Q733.961 484.977 735.767 488.542 Q737.596 492.083 741.207 492.083 Q744.841 492.083 746.647 488.542 Q748.475 484.977 748.475 477.87 Q748.475 470.741 746.647 467.199 Q744.841 463.634 741.207 463.634 M741.207 459.931 Q747.017 459.931 750.072 464.537 Q753.151 469.12 753.151 477.87 Q753.151 486.597 750.072 491.204 Q747.017 495.787 741.207 495.787 Q735.397 495.787 732.318 491.204 Q729.262 486.597 729.262 477.87 Q729.262 469.12 732.318 464.537 Q735.397 459.931 741.207 459.931 Z" fill="#000000" fill-rule="evenodd" fill-opacity="1"></path><path clip-path="url(#clip360)" d="M771.369 463.634 Q767.758 463.634 765.929 467.199 Q764.123 470.741 764.123 477.87 Q764.123 484.977 765.929 488.542 Q767.758 492.083 771.369 492.083 Q775.003 492.083 776.808 488.542 Q778.637 484.977 778.637 477.87 Q778.637 470.741 776.808 467.199 Q775.003 463.634 771.369 463.634 M771.369 459.931 Q777.179 459.931 780.234 464.537 Q783.313 469.12 783.313 477.87 Q783.313 486.597 780.234 491.204 Q777.179 495.787 771.369 495.787 Q765.558 495.787 762.48 491.204 Q759.424 486.597 759.424 477.87 Q759.424 469.12 762.48 464.537 Q765.558 459.931 771.369 459.931 Z" fill="#000000" fill-rule="evenodd" fill-opacity="1"></path></svg>